<svg width="665" height="800" viewBox="0 0 665 800" fill="none" xmlns="http://www.w3.org/2000/svg">
<g style="mix-blend-mode:soft-light" opacity="0.6">
<path d="M198.676 667.072L270.21 574.561C243.238 561.971 218.55 544.382 196.269 521.733C145.906 470.695 120.724 407.375 120.724 331.836C120.724 256.297 145.906 192.977 196.269 141.939C218.55 119.351 243.115 101.824 270.025 89.2344L199.973 -1.36317C168.372 15.6702 138.932 37.5173 111.775 64.3015C37.2171 137.804 0 227.661 0 333.996C0 440.331 36.5382 529.509 109.615 601.53C136.895 628.376 166.582 650.223 198.615 667.072H198.676Z" fill="white"/>
<path d="M711.878 526.485C747.922 467.362 765.883 401.821 765.883 329.738C765.883 223.403 729.53 134.225 656.762 62.2032C615.965 21.8416 569.552 -7.22609 517.583 -25L443.026 71.4605C491.846 81.7669 534.248 105.219 570.231 141.939C620.224 192.977 645.22 256.297 645.22 331.836C645.22 407.375 620.224 470.694 570.231 521.733C520.237 572.771 457.777 598.321 382.972 598.321C382.232 598.321 381.553 598.321 380.874 598.321L556.097 825H696.695L566.589 662.381C627.445 630.906 675.895 585.608 711.878 526.547V526.485Z" fill="white"/>
</g>
</svg>
