<?xml version="1.0" encoding="UTF-8"?><svg id="Layer_2" xmlns="http://www.w3.org/2000/svg" viewBox="0 0 124.1 137.72"><defs><style>.cls-1{fill:#9d6ce5;}.cls-1,.cls-2{stroke-width:0px;}.cls-2{fill:#fff;}</style></defs><g id="Logos"><path class="cls-2" d="m32.19,112.13l11.59-14.99c-4.37-2.04-8.37-4.89-11.98-8.56-8.16-8.27-12.24-18.53-12.24-30.77s4.08-22.5,12.24-30.77c3.61-3.66,7.59-6.5,11.95-8.54l-11.35-14.68c-5.12,2.76-9.89,6.3-14.29,10.64C6.03,26.37,0,40.93,0,58.16s5.92,31.68,17.76,43.35c4.42,4.35,9.23,7.89,14.42,10.62Z"/><path class="cls-1" d="m115.34,89.35c5.84-9.58,8.75-20.2,8.75-31.88,0-17.23-5.89-31.68-17.68-43.35-6.61-6.54-14.13-11.25-22.55-14.13l-12.08,15.63c7.91,1.67,14.78,5.47,20.61,11.42,8.1,8.27,12.15,18.53,12.15,30.77s-4.05,22.5-12.15,30.77c-8.1,8.27-18.22,12.41-30.34,12.41-.12,0-.23,0-.34,0l28.39,36.73h22.78l-21.08-26.35c9.86-5.1,17.71-12.44,23.54-22.01Z"/></g></svg>