<?xml version="1.0" encoding="UTF-8"?>
<svg id="Layer_2" data-name="Layer 2" xmlns="http://www.w3.org/2000/svg" viewBox="0 0 350.44 114.95">
  <defs>
    <style>
      .cls-1 {
        fill: #fff;
        stroke: #2d0075;
        stroke-miterlimit: 10;
        stroke-width: 2px;
      }

      .cls-2 {
        fill: #2d0075;
      }

      .cls-2, .cls-3, .cls-4 {
        stroke-width: 0px;
      }

      .cls-3 {
        fill: #9c6ce4;
      }

      .cls-4 {
        fill: #ff2929;
      }
    </style>
  </defs>
  <g id="Logos">
    <g>
      <g>
        <path class="cls-2" d="M148.66,47.31c4.16,4.12,6.24,9.22,6.24,15.3,0,4.12-1.03,7.87-3.09,11.25-2.06,3.38-4.83,5.97-8.31,7.77l7.44,9.3h-8.04l-5.52-7.14c-1.44.36-2.94.54-4.5.54-6.16,0-11.33-2.06-15.51-6.18-4.18-4.12-6.27-9.22-6.27-15.3s2.13-11.22,6.39-15.42c4.26-4.2,9.47-6.3,15.63-6.3s11.38,2.06,15.54,6.18ZM143.71,73.59c2.86-2.92,4.29-6.54,4.29-10.86s-1.43-7.94-4.29-10.86-6.43-4.38-10.71-4.38-7.8,1.46-10.68,4.38-4.32,6.54-4.32,10.86,1.44,7.94,4.32,10.86,6.44,4.38,10.68,4.38,7.85-1.46,10.71-4.38Z"/>
        <path class="cls-2" d="M209.5,41.73v24.78c0,5.28-1.63,9.57-4.89,12.87s-7.47,4.95-12.63,4.95-9.28-1.61-12.48-4.83-4.8-7.47-4.8-12.75v-25.02h7.02v24.84c0,3.4.98,6.15,2.94,8.25,1.96,2.1,4.48,3.15,7.56,3.15s5.65-1.04,7.59-3.12,2.91-4.84,2.91-8.28v-24.84h6.78Z"/>
        <path class="cls-2" d="M232,41.73h7.14v42h-7.14v-42Z"/>
        <path class="cls-2" d="M269.02,51.99v31.74h-6.78v-42h7.2l22.68,31.2v-31.2h6.72v42h-6.72l-23.1-31.74Z"/>
        <path class="cls-2" d="M337.36,47.73v36h-6.9v-36h-13.02v-6h33v6h-13.08Z"/>
      </g>
      <g>
        <path class="cls-2" d="M21.04,98.23l7.57-9.79c-2.86-1.33-5.47-3.2-7.83-5.59-5.33-5.41-8-12.11-8-20.11s2.67-14.7,8-20.11c2.36-2.39,4.96-4.25,7.81-5.58l-7.42-9.59c-3.35,1.8-6.46,4.12-9.34,6.95C3.94,42.19,0,51.7,0,62.96s3.87,20.7,11.61,28.33c2.89,2.85,6.03,5.16,9.43,6.94Z"/>
        <path class="cls-3" d="M75.38,83.35c3.81-6.26,5.72-13.2,5.72-20.83,0-11.26-3.85-20.7-11.55-28.33-4.32-4.28-9.23-7.35-14.74-9.23l-7.9,10.21c5.17,1.09,9.66,3.57,13.47,7.46,5.3,5.41,7.94,12.11,7.94,20.11s-2.65,14.7-7.94,20.11c-5.3,5.41-11.91,8.11-19.83,8.11-.08,0-.15,0-.23,0l18.56,24h14.89l-13.78-17.22c6.44-3.33,11.57-8.13,15.39-14.39Z"/>
      </g>
      <g>
        <path class="cls-4" d="M44.44,13.65c4.08,4.55,21.4,14.6,31.01,16,0,0,5.04-13.18-1.36-21.7,0,0,4.54,2.43,4.9,11.72,6.2-2.02,13.7.85,13.7.85-23.06-41.75-48.25-6.87-48.25-6.87Z"/>
        <path class="cls-1" d="M38.06,23.56c4.36,1.19,19.9,6.01,32.55,16.97.67.58,1.63.66,2.37.17,1.6-1.06,4.16-3.35,4.91-7.39.11-.6-.05-1.22-.46-1.67-2.43-2.71-12.52-12.59-35.51-18.69-.61-.16-1.26-.03-1.74.38-1.4,1.16-4.02,3.99-3.54,8.52.09.81.64,1.5,1.43,1.71Z"/>
        <circle class="cls-1" cx="93.25" cy="21.66" r="7.07"/>
      </g>
    </g>
  </g>
</svg>