<svg width="200" height="51" viewBox="0 0 200 51" fill="none" xmlns="http://www.w3.org/2000/svg">
<g clip-path="url(#clip0_2415_1293)">
<path d="M84.8419 12.6705C87.2161 15.0051 88.4032 17.8951 88.4032 21.3405C88.4032 23.6751 87.8153 25.8001 86.6397 27.7155C85.464 29.6308 83.8831 31.0985 81.897 32.1185L86.1431 37.3885H81.5546L78.4043 33.3425C77.5825 33.5465 76.7264 33.6485 75.8361 33.6485C72.3205 33.6485 69.3699 32.4811 66.9844 30.1465C64.5988 27.8118 63.406 24.9218 63.406 21.4765C63.406 18.0311 64.6216 15.1185 67.0528 12.7385C69.4841 10.3585 72.4575 9.16846 75.9731 9.16846C79.4886 9.16846 82.4678 10.3358 84.8419 12.6705ZM82.0169 27.5625C83.6491 25.9078 84.4652 23.8565 84.4652 21.4085C84.4652 18.9605 83.6491 16.9091 82.0169 15.2545C80.3847 13.5998 78.3472 12.7725 75.9046 12.7725C73.4619 12.7725 71.453 13.5998 69.8094 15.2545C68.1657 16.9091 67.3439 18.9605 67.3439 21.4085C67.3439 23.8565 68.1657 25.9078 69.8094 27.5625C71.453 29.2171 73.4848 30.0445 75.9046 30.0445C78.3244 30.0445 80.3847 29.2171 82.0169 27.5625Z" fill="#2D0075"/>
<path d="M119.564 9.50879V23.5508C119.564 26.5428 118.634 28.9738 116.773 30.8438C114.913 32.7138 112.51 33.6488 109.565 33.6488C106.62 33.6488 104.269 32.7365 102.443 30.9118C100.616 29.0871 99.7032 26.6788 99.7032 23.6868V9.50879H103.71V23.5848C103.71 25.5115 104.269 27.0698 105.388 28.2598C106.506 29.4498 107.944 30.0448 109.702 30.0448C111.46 30.0448 112.927 29.4555 114.034 28.2768C115.141 27.0981 115.695 25.5341 115.695 23.5848V9.50879H119.564Z" fill="#2D0075"/>
<path d="M132.405 9.50879H136.48V33.3088H132.405V9.50879Z" fill="#2D0075"/>
<path d="M153.533 15.3228V33.3088H149.663V9.50879H153.772L166.716 27.1888V9.50879H170.551V33.3088H166.716L153.533 15.3228Z" fill="#2D0075"/>
<path d="M192.535 12.9088V33.3088H188.597V12.9088H181.167V9.50879H200V12.9088H192.535Z" fill="#2D0075"/>
<path d="M12.0078 41.5254L16.328 35.9777C14.6958 35.224 13.2063 34.1644 11.8594 32.81C8.81749 29.7444 7.29369 25.9477 7.29369 21.4144C7.29369 16.881 8.81749 13.0844 11.8594 10.0187C13.2063 8.66436 14.6901 7.61036 16.3166 6.8567L12.082 1.42236C10.1701 2.44236 8.39516 3.75703 6.75151 5.3607C2.2486 9.7637 0 15.1584 0 21.539C0 27.9197 2.20865 33.269 6.62596 37.5927C8.27531 39.2077 10.0673 40.5167 12.0078 41.5254Z" fill="#2D0075"/>
<path d="M43.0202 33.0877C45.1946 29.5403 46.2847 25.6077 46.2847 21.284C46.2847 14.9033 44.0874 9.554 39.693 5.23033C37.2275 2.805 34.4253 1.06533 31.2807 0L26.7721 5.78567C29.7226 6.40333 32.2851 7.80867 34.4595 10.013C37.4843 13.0787 38.991 16.8753 38.991 21.4087C38.991 25.942 37.4786 29.7387 34.4595 32.8043C31.4348 35.87 27.6624 37.4 23.1423 37.4C23.0967 37.4 23.0567 37.4 23.0111 37.4L33.6035 51H42.1014L34.237 41.242C37.9123 39.355 40.8401 36.635 43.0202 33.0877Z" fill="#9D6CE5"/>
</g>
<defs>
<clipPath id="clip0_2415_1293">
<rect width="200" height="51" fill="white"/>
</clipPath>
</defs>
</svg>
