<svg width="95" height="72" viewBox="0 0 95 72" fill="none" xmlns="http://www.w3.org/2000/svg">
<path d="M17.879 12.9526H53.934C56.6567 12.9526 58.8598 15.6753 58.8598 17.8784V53.9334C58.8598 56.6561 56.6528 58.8592 53.934 58.8592H17.879C15.1563 58.8592 12.9532 56.1365 12.9532 53.9334V17.8784C12.9532 15.1557 15.1602 12.9526 17.879 12.9526Z" fill="#9D6CE5" fill-opacity="0.3"/>
<path d="M29.461 2.3789C29.461 1.0664 28.3946 0 27.0821 0C25.7696 0 24.7032 1.0664 24.7032 2.3789V9.3437H29.4571V2.3789H29.461Z" fill="#9D6CE5" fill-opacity="0.3"/>
<path d="M38.285 2.3789C38.285 1.0664 37.2186 0 35.9061 0C34.5936 0 33.5272 1.0664 33.5272 2.3789V9.3437H38.2811V2.3789H38.285Z" fill="#9D6CE5" fill-opacity="0.3"/>
<path d="M47.105 2.3789C47.105 1.0664 46.0386 0 44.7261 0C43.4136 0 42.3472 1.0664 42.3472 2.3789V9.3437H47.1011V2.3789H47.105Z" fill="#9D6CE5" fill-opacity="0.3"/>
<path d="M42.352 69.4326C42.352 70.7451 43.4184 71.8115 44.7309 71.8115C46.0434 71.8115 47.1098 70.7451 47.1098 69.4326V62.4717H42.3559V69.4326H42.352Z" fill="#9D6CE5" fill-opacity="0.3"/>
<path d="M33.527 69.4326C33.527 70.7451 34.5895 71.8115 35.9059 71.8115C37.2184 71.8115 38.2848 70.7451 38.2848 69.4326V62.4717H33.5309V69.4326H33.527Z" fill="#9D6CE5" fill-opacity="0.3"/>
<path d="M24.707 69.4326C24.707 70.7451 25.7734 71.8115 27.0859 71.8115C28.3984 71.8115 29.4648 70.7451 29.4648 69.4326V62.4717H24.7109V69.4326H24.707Z" fill="#9D6CE5" fill-opacity="0.3"/>
<path d="M0 44.73C0 46.0425 1.0664 47.1089 2.3789 47.1089H9.3437V42.355H2.3789C1.0664 42.355 0 43.4214 0 44.7339V44.73Z" fill="#9D6CE5" fill-opacity="0.3"/>
<path d="M0 35.9058C0 37.2183 1.0664 38.2847 2.3789 38.2847H9.3437V33.5308H2.3789C1.0664 33.5308 0 34.5972 0 35.9097V35.9058Z" fill="#9D6CE5" fill-opacity="0.3"/>
<path d="M0 27.0815C0 28.394 1.0664 29.4604 2.3789 29.4604H9.3437V24.7065H2.3789C1.0664 24.7065 0 25.7729 0 27.0854V27.0815Z" fill="#9D6CE5" fill-opacity="0.3"/>
<path d="M77.418 28.293L80.4649 23.1407C80.7384 23.1798 81.0118 23.2266 81.297 23.2266C84.6993 23.2266 87.4611 20.4688 87.4611 17.0625C87.4611 13.6602 84.6994 10.8984 81.297 10.8984C77.8946 10.8984 75.1329 13.6562 75.1329 17.0625C75.1329 18.4414 75.6016 19.7031 76.3673 20.7305L74.0157 24.711H62.4727V29.4649H75.3707C76.2105 29.4649 76.9878 29.0235 77.4175 28.2969L77.418 28.293Z" fill="#9D6CE5" fill-opacity="0.3"/>
<path d="M88.836 29.7417C86.2735 29.7417 84.0821 31.3042 83.1485 33.5269H62.4685V38.2808H83.1485C84.0782 40.5035 86.2735 42.066 88.8321 42.066C92.2344 42.066 94.9962 39.3082 94.9962 35.9019C94.9962 32.4996 92.2345 29.7378 88.8321 29.7378L88.836 29.7417Z" fill="#9D6CE5" fill-opacity="0.3"/>
<path d="M81.297 48.5898C81.0118 48.5898 80.7384 48.6367 80.465 48.6758L77.418 43.5235C76.9884 42.7969 76.211 42.3555 75.3711 42.3555H62.4731V47.1094H74.0161L76.3677 51.0899C75.6021 52.1172 75.1333 53.3751 75.1333 54.7579C75.1333 58.1602 77.895 60.922 81.2974 60.922C84.6998 60.922 87.4615 58.1642 87.4615 54.7579C87.4615 51.3556 84.6998 48.5938 81.2974 48.5938L81.297 48.5898Z" fill="#9D6CE5" fill-opacity="0.3"/>
</svg>
