<svg width="79" height="79" viewBox="0 0 79 79" fill="none" xmlns="http://www.w3.org/2000/svg">
<path fill-rule="evenodd" clip-rule="evenodd" d="M31.7436 15.4133H47.263V18.9411H31.7436V15.4133ZM66.6587 35.501V44.4195C65.5333 43.9292 64.2562 43.9292 63.1309 44.4195V35.501L64.4538 36.263C64.7254 36.4218 65.0641 36.4218 65.3357 36.263L66.6587 35.501ZM47.2621 66.5149H31.7427V62.9871H47.2621V66.5149ZM12.347 44.4195V35.501L13.6699 36.263C13.9415 36.4218 14.2802 36.4218 14.5519 36.263L15.8748 35.501V44.4195C14.7494 43.9292 13.4723 43.9292 12.347 44.4195ZM77.2389 54.5691L64.8949 61.6954L52.5508 54.5691L64.4541 47.6967C64.7258 47.5379 65.0645 47.5379 65.3361 47.6967L77.2389 54.5691ZM77.2389 6.99145L64.8949 14.1178L52.5508 6.99145L64.4541 0.119066C64.7258 -0.0396887 65.0645 -0.0396887 65.3361 0.119066L77.2389 6.99145ZM26.4521 54.5691L14.1081 61.6954L1.76407 54.5691L13.6674 47.6967C13.939 47.5379 14.2777 47.5379 14.5493 47.6967L26.4521 54.5691ZM26.4521 6.99145L14.1081 14.1178L1.76407 6.99145L13.6674 0.119066C13.939 -0.0396887 14.2777 -0.0396887 14.5493 0.119066L26.4521 6.99145ZM50.787 57.6208L63.1311 64.7471V78.9996L51.2278 72.1273C50.9561 71.9685 50.7868 71.6792 50.7868 71.3652L50.787 57.6208ZM50.787 10.0432L63.1311 17.1695V31.422L51.2278 24.5496C50.9561 24.3909 50.7868 24.1016 50.7868 23.7876L50.787 10.0432ZM0.000253221 57.6208L12.3443 64.7471V78.9996L0.440982 72.1273C0.169338 71.9685 0 71.6792 0 71.3652L0.000253221 57.6208ZM0.000253221 10.0432L12.3443 17.1695V31.422L0.440982 24.5496C0.169338 24.3909 0 24.1016 0 23.7876L0.000253221 10.0432ZM66.656 79V64.7475L79 57.6212V71.3661C79 71.6801 78.8307 71.9729 78.559 72.1281L66.656 79ZM66.656 31.426V17.1735L79 10.0471V23.7921C79 24.1061 78.8307 24.3989 78.559 24.5541L66.656 31.426ZM15.8692 79V64.7475L28.2132 57.6212V71.3661C28.2132 71.6801 28.0439 71.9729 27.7722 72.1281L15.8692 79ZM15.8692 31.426V17.1735L28.2132 10.0471V23.7921C28.2132 24.1061 28.0439 24.3989 27.7722 24.5541L15.8692 31.426Z" fill="#9D6CE5" fill-opacity="0.3"/>
<path d="M38.7979 31.853V28H41.6442V31.853H38.7979ZM41.6442 51.2907V55H38.7979V51.2907H41.6442ZM40.5941 52.1246C38.0887 52.1246 36.0898 51.5304 34.5976 50.3419C33.1238 49.1342 32.2579 47.4377 32 45.2524H35.4542C35.62 46.5176 36.1635 47.5048 37.0846 48.2141C38.0058 48.9042 39.2124 49.2492 40.7047 49.2492C41.939 49.2492 42.8785 49.0192 43.5233 48.5591C44.1865 48.0799 44.5181 47.4185 44.5181 46.5751C44.5181 45.8275 44.3155 45.2236 43.9102 44.7636C43.5049 44.3035 42.8233 43.9297 41.8653 43.6422L38.2729 42.5208C36.449 41.9457 35.1042 41.1885 34.2383 40.2492C33.3909 39.3099 32.9672 38.131 32.9672 36.7125C32.9672 35.524 33.2619 34.4888 33.8515 33.607C34.441 32.7252 35.27 32.0447 36.3385 31.5655C37.4254 31.0863 38.6874 30.8466 40.1244 30.8466C42.3351 30.8466 44.0944 31.4121 45.4024 32.5431C46.7288 33.655 47.4842 35.1693 47.6684 37.0863H44.2142C44.0115 35.9361 43.551 35.0927 42.8325 34.5559C42.114 34 41.1468 33.722 39.9309 33.722C38.8624 33.722 38.015 33.9425 37.3886 34.3834C36.7622 34.8243 36.4491 35.4281 36.4491 36.1949C36.4491 36.8275 36.6333 37.3642 37.0017 37.8051C37.3886 38.246 38.0979 38.6294 39.1295 38.9553L42.7772 40.1054C44.601 40.6613 45.9275 41.4185 46.7565 42.377C47.5855 43.3355 48 44.5527 48 46.0288C48 47.984 47.346 49.4888 46.038 50.5431C44.7484 51.5974 42.9338 52.1246 40.5941 52.1246Z" fill="#9D6CE5" fill-opacity="0.3"/>
</svg>
