<svg width="65" height="60" viewBox="0 0 65 60" fill="none" xmlns="http://www.w3.org/2000/svg">
<path d="M56.93 13.4066C54.5111 12.1724 51.7865 11.6834 49.0943 11.9986C47.751 8.70242 43.1924 0.00119317 32.5057 0.00119317C28.9758 -0.0429905 25.5429 1.14113 22.7889 3.35329C20.032 5.56252 18.1275 8.66132 17.3985 12.1225C13.7804 12.5407 10.9001 15.3508 10.3858 18.9651C7.4584 19.2125 4.73968 20.5881 2.80288 22.8062C0.868933 25.0243 -0.130355 27.908 0.0136578 30.8507V31.0805C0.19001 36.7155 4.82207 41.1783 10.4475 41.1339H13.6952V49.7024H11.5115C10.7385 48.3593 9.16014 47.7024 7.66411 48.1059C6.16807 48.5065 5.13056 49.8644 5.13056 51.4168C5.13056 52.9662 6.16807 54.3241 7.66411 54.7276C9.16014 55.1282 10.7384 54.4743 11.5115 53.1281H15.4058C15.8584 53.1281 16.2935 52.9485 16.6138 52.6274C16.9342 52.3063 17.1164 51.8704 17.1164 51.4167V41.1334H22.2452V49.7019C22.2452 50.6475 23.0123 51.4163 23.9558 51.4163C24.8992 51.4163 25.6663 50.6475 25.6663 49.7019V41.1334H30.7951V53.605C29.4549 54.3797 28.8024 55.9615 29.2021 57.4609C29.6018 58.9573 30.9567 60 32.5057 60C34.0546 60 35.4095 58.9573 35.8092 57.4609C36.209 55.9615 35.5565 54.3798 34.2162 53.605V41.1334H39.345V49.7019C39.345 50.6475 40.1121 51.4163 41.0555 51.4163C41.999 51.4163 42.7661 50.6475 42.7661 49.7019V41.1334H47.8949V51.4167C47.8949 51.8703 48.0771 52.3063 48.3975 52.6274C48.7179 52.9485 49.1528 53.1281 49.6055 53.1281H53.4999C54.2728 54.4743 55.8512 55.1282 57.3472 54.7276C58.8433 54.3241 59.8808 52.9662 59.8808 51.4168C59.8808 49.8644 58.8433 48.5065 57.3472 48.1059C55.8512 47.7024 54.2729 48.3592 53.4999 49.7024H51.3161V41.1339H51.8305C54.5345 41.181 57.1885 40.371 59.4073 38.8216C61.6293 37.2722 63.3076 35.06 64.2069 32.5032C64.7389 30.8625 65.0064 29.1482 64.9976 27.422C65.0475 24.5736 64.3245 21.7635 62.9019 19.2923C61.4824 16.8239 59.4165 14.7881 56.93 13.4066Z" fill="#9D6CE5" fill-opacity="0.3"/>
</svg>
