<svg width="70" height="80" viewBox="0 0 70 80" fill="none" xmlns="http://www.w3.org/2000/svg">
<path d="M18.0213 64.3258L24.5052 55.7803C22.0555 54.6194 19.82 52.9871 17.7986 50.901C13.2333 46.1787 10.9464 40.3304 10.9464 33.3474C10.9464 26.3644 13.2333 20.5161 17.7986 15.7938C19.82 13.7076 22.047 12.0841 24.4881 10.9231L18.1327 2.55225C15.2633 4.12343 12.5995 6.1485 10.1327 8.61875C3.37471 15.401 0 23.7108 0 33.5394C0 43.368 3.31476 51.608 9.94427 58.268C12.4196 60.7557 15.1091 62.7721 18.0213 64.3258Z" fill="white" fill-opacity="0.3"/>
<path d="M65.0011 51.3387C68.2922 45.8347 69.9421 39.7328 69.9421 33.0242C69.9421 23.124 66.6164 14.824 59.965 8.11537C56.2334 4.35223 51.9921 1.65297 47.2325 0L40.4083 8.97702C44.8742 9.93539 48.7528 12.1159 52.0439 15.5361C56.6221 20.2928 58.9025 26.1837 58.9025 33.2176C58.9025 40.2515 56.6134 46.1424 52.0439 50.8991C47.4657 55.6558 41.7559 58.0297 34.9145 58.0297C34.8454 58.0297 34.7849 58.0297 34.7158 58.0297L50.7482 79.1314H63.6103L51.707 63.9909C57.2699 61.0631 61.7013 56.8427 65.0011 51.3387Z" fill="white" fill-opacity="0.3"/>
</svg>
