<?xml version="1.0" encoding="UTF-8" standalone="no"?>
<!DOCTYPE svg PUBLIC "-//W3C//DTD SVG 1.1//EN" "http://www.w3.org/Graphics/SVG/1.1/DTD/svg11.dtd">
<svg xmlns="http://www.w3.org/2000/svg" version="1.1" viewBox="0.00 0.00 1448.00 1448.00">
<path fill="#9d6ce5" d="
  M 831.26 707.16
  A 1.00 0.99 37.3 0 0 830.05 707.32
  L 403.42 1133.94
  A 2.44 2.44 0.0 0 1 400.86 1134.51
  Q 400.10 1134.23 399.52 1133.65
  Q 358.24 1092.35 320.53 1054.71
  Q 319.31 1053.49 318.51 1051.96
  Q 318.27 1051.50 318.50 1051.04
  Q 319.33 1049.39 320.58 1048.14
  Q 435.01 933.58 744.11 624.52
  C 745.39 623.24 745.33 621.18 744.51 619.71
  Q 718.62 573.51 711.87 523.30
  C 703.36 459.90 720.26 393.68 757.09 341.43
  C 795.56 286.86 855.43 249.81 921.36 239.94
  Q 974.87 231.94 1025.72 244.63
  C 1090.85 260.88 1146.42 302.24 1180.57 359.80
  C 1215.03 417.88 1225.59 488.96 1208.36 554.59
  Q 1196.08 601.36 1167.32 640.39
  C 1111.21 716.53 1017.63 755.63 923.99 740.67
  Q 875.05 732.85 831.26 707.16
  Z
  M 1097.60 490.18
  A 134.59 134.59 0.0 0 0 963.01 355.59
  A 134.59 134.59 0.0 0 0 828.42 490.18
  A 134.59 134.59 0.0 0 0 963.01 624.77
  A 134.59 134.59 0.0 0 0 1097.60 490.18
  Z"
/>
<path fill="#9d6ce5" d="
  M 237.84 804.13
  C 263.82 737.72 291.14 667.93 316.13 604.44
  Q 316.87 602.57 318.77 601.83
  Q 416.18 563.61 522.15 522.04
  A 2.71 2.69 56.8 0 1 525.04 522.65
  L 612.00 609.79
  Q 613.01 610.80 612.46 612.11
  Q 611.83 613.59 609.52 614.50
  Q 510.54 653.28 409.99 692.46
  C 408.24 693.14 407.10 695.14 406.35 697.07
  Q 367.39 796.61 328.52 895.85
  A 2.90 2.89 33.2 0 1 323.77 896.84
  Q 281.18 854.30 237.90 811.04
  C 235.63 808.76 236.67 807.14 237.84 804.13
  Z"
/>
<path fill="#9d6ce5" d="
  M 760.48 1043.49
  L 839.28 841.89
  A 2.37 2.36 -70.1 0 1 842.22 840.51
  Q 843.17 840.82 843.89 841.54
  Q 887.10 884.77 930.18 927.75
  Q 931.71 929.27 930.92 931.28
  L 851.39 1134.37
  A 4.68 4.67 -0.2 0 1 848.74 1137.03
  Q 748.20 1176.43 646.97 1216.08
  Q 644.07 1217.22 641.90 1215.05
  Q 599.07 1172.12 556.51 1129.67
  Q 555.72 1128.88 555.06 1127.91
  A 1.99 1.98 -27.8 0 1 555.98 1124.95
  L 757.76 1046.20
  A 4.78 4.75 -0.1 0 0 760.48 1043.49
  Z"
/>
</svg>
