<?xml version="1.0" encoding="UTF-8"?><svg id="Layer_2" xmlns="http://www.w3.org/2000/svg" viewBox="0 0 350.44 90"><defs><style>.cls-1{fill:#2d0075;}.cls-1,.cls-2{stroke-width:0px;}.cls-2{fill:#9d6ce5;}</style></defs><g id="Logos"><path class="cls-1" d="m148.66,22.36c4.16,4.12,6.24,9.22,6.24,15.3,0,4.12-1.03,7.87-3.09,11.25-2.06,3.38-4.83,5.97-8.31,7.77l7.44,9.3h-8.04l-5.52-7.14c-1.44.36-2.94.54-4.5.54-6.16,0-11.33-2.06-15.51-6.18-4.18-4.12-6.27-9.22-6.27-15.3s2.13-11.22,6.39-15.42c4.26-4.2,9.47-6.3,15.63-6.3s11.38,2.06,15.54,6.18Zm-4.95,26.28c2.86-2.92,4.29-6.54,4.29-10.86s-1.43-7.94-4.29-10.86-6.43-4.38-10.71-4.38-7.8,1.46-10.68,4.38-4.32,6.54-4.32,10.86,1.44,7.94,4.32,10.86,6.44,4.38,10.68,4.38,7.85-1.46,10.71-4.38Z"/><path class="cls-1" d="m209.5,16.78v24.78c0,5.28-1.63,9.57-4.89,12.87s-7.47,4.95-12.63,4.95-9.28-1.61-12.48-4.83-4.8-7.47-4.8-12.75v-25.02h7.02v24.84c0,3.4.98,6.15,2.94,8.25,1.96,2.1,4.48,3.15,7.56,3.15s5.65-1.04,7.59-3.12,2.91-4.84,2.91-8.28v-24.84h6.78Z"/><path class="cls-1" d="m232,16.78h7.14v42h-7.14V16.78Z"/><path class="cls-1" d="m269.02,27.04v31.74h-6.78V16.78h7.2l22.68,31.2v-31.2h6.72v42h-6.72l-23.1-31.74Z"/><path class="cls-1" d="m337.36,22.78v36h-6.9V22.78h-13.02v-6h33v6h-13.08Z"/><path class="cls-1" d="m21.04,73.28l7.57-9.79c-2.86-1.33-5.47-3.2-7.83-5.59-5.33-5.41-8-12.11-8-20.11s2.67-14.7,8-20.11c2.36-2.39,4.96-4.25,7.81-5.58l-7.42-9.59c-3.35,1.8-6.46,4.12-9.34,6.95C3.94,17.23,0,26.75,0,38.01s3.87,20.7,11.61,28.33c2.89,2.85,6.03,5.16,9.43,6.94Z"/><path class="cls-2" d="m75.38,58.39c3.81-6.26,5.72-13.2,5.72-20.83,0-11.26-3.85-20.7-11.55-28.33-4.32-4.28-9.23-7.35-14.74-9.23l-7.9,10.21c5.17,1.09,9.66,3.57,13.47,7.46,5.3,5.41,7.94,12.11,7.94,20.11s-2.65,14.7-7.94,20.11c-5.3,5.41-11.91,8.11-19.83,8.11-.08,0-.15,0-.23,0l18.56,24h14.89l-13.78-17.22c6.44-3.33,11.57-8.13,15.39-14.39Z"/></g></svg>