<?xml version="1.0" encoding="UTF-8"?>
<svg xmlns="http://www.w3.org/2000/svg" width="283" height="71">
   <defs>
      <style type="text/css">
    @namespace "http://www.w3.org/2000/svg";
    .line                 {fill: none; stroke: #332900; stroke-width: 1;}
    .bold-line            {stroke: #141000; shape-rendering: crispEdges; stroke-width: 2;}
    .thin-line            {stroke: #1F1800; shape-rendering: crispEdges}
    .filled               {fill: #332900; stroke: none;}
    text.terminal         {font-family: Verdana, Sans-serif;
                            font-size: 12px;
                            fill: #141000;
                            font-weight: bold;
                          }
    text.nonterminal      {font-family: Verdana, Sans-serif;
                            font-size: 12px;
                            fill: #1A1400;
                            font-weight: normal;
                          }
    text.regexp           {font-family: Verdana, Sans-serif;
                            font-size: 12px;
                            fill: #1F1800;
                            font-weight: normal;
                          }
    rect, circle, polygon {fill: #332900; stroke: #332900;}
    rect.terminal         {fill: #FFDB4D; stroke: #332900; stroke-width: 1;}
    rect.nonterminal      {fill: #FFEC9E; stroke: #332900; stroke-width: 1;}
    rect.text             {fill: none; stroke: none;}
    polygon.regexp        {fill: #FFF4C7; stroke: #332900; stroke-width: 1;}
  </style>
   </defs>
   <polygon points="9 51 1 47 1 55"/>
   <polygon points="17 51 9 47 9 55"/>
   <rect x="31" y="37" width="44" height="32" rx="10"/>
   <rect x="29"
          y="35"
          width="44"
          height="32"
          class="terminal"
          rx="10"/>
   <text class="terminal" x="39" y="55">///</text>
   <polygon points="115 19 122 3 142 3 149 19 142 35 122 35"/>
   <polygon points="113 17 120 1 140 1 147 17 140 33 120 33" class="regexp"/>
   <text class="regexp" x="128" y="21">.</text>
   <polygon points="189 53 196 37 248 37 255 53 248 69 196 69"/>
   <polygon points="187 51 194 35 246 35 253 51 246 67 194 67" class="regexp"/>
   <text class="regexp" x="202" y="55">[#xA]</text>
   <path class="line"
          d="m17 51 h2 m0 0 h10 m44 0 h10 m20 0 h10 m0 0 h44 m-74 0 l20 0 m-1 0 q-9 0 -9 -10 l0 -14 q0 -10 10 -10 m54 34 l20 0 m-20 0 q10 0 10 -10 l0 -14 q0 -10 -10 -10 m-54 0 h10 m34 0 h10 m20 34 h10 m66 0 h10 m3 0 h-3"/>
   <polygon points="273 51 281 47 281 55"/>
   <polygon points="273 51 265 47 265 55"/>
</svg>
