<?xml version="1.0" encoding="UTF-8"?>
<svg xmlns="http://www.w3.org/2000/svg" width="739" height="2099">
   <defs>
      <style type="text/css">
    @namespace "http://www.w3.org/2000/svg";
    .line                 {fill: none; stroke: #332900; stroke-width: 1;}
    .bold-line            {stroke: #141000; shape-rendering: crispEdges; stroke-width: 2;}
    .thin-line            {stroke: #1F1800; shape-rendering: crispEdges}
    .filled               {fill: #332900; stroke: none;}
    text.terminal         {font-family: Verdana, Sans-serif;
                            font-size: 12px;
                            fill: #141000;
                            font-weight: bold;
                          }
    text.nonterminal      {font-family: Verdana, Sans-serif;
                            font-size: 12px;
                            fill: #1A1400;
                            font-weight: normal;
                          }
    text.regexp           {font-family: Verdana, Sans-serif;
                            font-size: 12px;
                            fill: #1F1800;
                            font-weight: normal;
                          }
    rect, circle, polygon {fill: #332900; stroke: #332900;}
    rect.terminal         {fill: #FFDB4D; stroke: #332900; stroke-width: 1;}
    rect.nonterminal      {fill: #FFEC9E; stroke: #332900; stroke-width: 1;}
    rect.text             {fill: none; stroke: none;}
    polygon.regexp        {fill: #FFF4C7; stroke: #332900; stroke-width: 1;}
  </style>
   </defs>
   <polygon points="9 17 1 13 1 21"/>
   <polygon points="17 17 9 13 9 21"/>
   <a xmlns:xlink="http://www.w3.org/1999/xlink"
       xlink:href="#expr"
       xlink:title="expr">
      <rect x="51" y="3" width="48" height="32"/>
      <rect x="49" y="1" width="48" height="32" class="nonterminal"/>
      <text class="nonterminal" x="59" y="21">expr</text>
   </a>
   <rect x="139" y="3" width="24" height="32" rx="10"/>
   <rect x="137"
          y="1"
          width="24"
          height="32"
          class="terminal"
          rx="10"/>
   <text class="terminal" x="147" y="21">.</text>
   <a xmlns:xlink="http://www.w3.org/1999/xlink"
       xlink:href="#nameAfterDot"
       xlink:title="nameAfterDot">
      <rect x="183" y="3" width="108" height="32"/>
      <rect x="181" y="1" width="108" height="32" class="nonterminal"/>
      <text class="nonterminal" x="191" y="21">nameAfterDot</text>
   </a>
   <a xmlns:xlink="http://www.w3.org/1999/xlink"
       xlink:href="#argList"
       xlink:title="argList">
      <rect x="331" y="35" width="62" height="32"/>
      <rect x="329" y="33" width="62" height="32" class="nonterminal"/>
      <text class="nonterminal" x="339" y="53">argList</text>
   </a>
   <rect x="139" y="79" width="26" height="32" rx="10"/>
   <rect x="137"
          y="77"
          width="26"
          height="32"
          class="terminal"
          rx="10"/>
   <text class="terminal" x="147" y="97">[</text>
   <a xmlns:xlink="http://www.w3.org/1999/xlink"
       xlink:href="#expr"
       xlink:title="expr">
      <rect x="185" y="79" width="48" height="32"/>
      <rect x="183" y="77" width="48" height="32" class="nonterminal"/>
      <text class="nonterminal" x="193" y="97">expr</text>
   </a>
   <rect x="253" y="79" width="26" height="32" rx="10"/>
   <rect x="251"
          y="77"
          width="26"
          height="32"
          class="terminal"
          rx="10"/>
   <text class="terminal" x="261" y="97">]</text>
   <rect x="159" y="123" width="30" height="32" rx="10"/>
   <rect x="157"
          y="121"
          width="30"
          height="32"
          class="terminal"
          rx="10"/>
   <text class="terminal" x="167" y="141">^</text>
   <rect x="159" y="167" width="28" height="32" rx="10"/>
   <rect x="157"
          y="165"
          width="28"
          height="32"
          class="terminal"
          rx="10"/>
   <text class="terminal" x="167" y="185">*</text>
   <rect x="159" y="211" width="28" height="32" rx="10"/>
   <rect x="157"
          y="209"
          width="28"
          height="32"
          class="terminal"
          rx="10"/>
   <text class="terminal" x="167" y="229">/</text>
   <rect x="159" y="255" width="34" height="32" rx="10"/>
   <rect x="157"
          y="253"
          width="34"
          height="32"
          class="terminal"
          rx="10"/>
   <text class="terminal" x="167" y="273">%</text>
   <rect x="159" y="299" width="30" height="32" rx="10"/>
   <rect x="157"
          y="297"
          width="30"
          height="32"
          class="terminal"
          rx="10"/>
   <text class="terminal" x="167" y="317">+</text>
   <rect x="159" y="343" width="26" height="32" rx="10"/>
   <rect x="157"
          y="341"
          width="26"
          height="32"
          class="terminal"
          rx="10"/>
   <text class="terminal" x="167" y="361">-</text>
   <rect x="159" y="387" width="30" height="32" rx="10"/>
   <rect x="157"
          y="385"
          width="30"
          height="32"
          class="terminal"
          rx="10"/>
   <text class="terminal" x="167" y="405">&gt;</text>
   <rect x="159" y="431" width="30" height="32" rx="10"/>
   <rect x="157"
          y="429"
          width="30"
          height="32"
          class="terminal"
          rx="10"/>
   <text class="terminal" x="167" y="449">&lt;</text>
   <rect x="159" y="475" width="40" height="32" rx="10"/>
   <rect x="157"
          y="473"
          width="40"
          height="32"
          class="terminal"
          rx="10"/>
   <text class="terminal" x="167" y="493">&gt;=</text>
   <rect x="159" y="519" width="40" height="32" rx="10"/>
   <rect x="157"
          y="517"
          width="40"
          height="32"
          class="terminal"
          rx="10"/>
   <text class="terminal" x="167" y="537">&lt;=</text>
   <rect x="159" y="563" width="34" height="32" rx="10"/>
   <rect x="157"
          y="561"
          width="34"
          height="32"
          class="terminal"
          rx="10"/>
   <text class="terminal" x="167" y="581">!=</text>
   <rect x="159" y="607" width="40" height="32" rx="10"/>
   <rect x="157"
          y="605"
          width="40"
          height="32"
          class="terminal"
          rx="10"/>
   <text class="terminal" x="167" y="625">==</text>
   <rect x="159" y="651" width="30" height="32" rx="10"/>
   <rect x="157"
          y="649"
          width="30"
          height="32"
          class="terminal"
          rx="10"/>
   <text class="terminal" x="167" y="669">=</text>
   <rect x="159" y="695" width="44" height="32" rx="10"/>
   <rect x="157"
          y="693"
          width="44"
          height="32"
          class="terminal"
          rx="10"/>
   <text class="terminal" x="167" y="713">and</text>
   <rect x="159" y="739" width="34" height="32" rx="10"/>
   <rect x="157"
          y="737"
          width="34"
          height="32"
          class="terminal"
          rx="10"/>
   <text class="terminal" x="167" y="757">or</text>
   <rect x="159" y="783" width="34" height="32" rx="10"/>
   <rect x="157"
          y="781"
          width="34"
          height="32"
          class="terminal"
          rx="10"/>
   <text class="terminal" x="167" y="801">iff</text>
   <rect x="159" y="827" width="68" height="32" rx="10"/>
   <rect x="157"
          y="825"
          width="68"
          height="32"
          class="terminal"
          rx="10"/>
   <text class="terminal" x="167" y="845">implies</text>
   <rect x="159" y="871" width="36" height="32" rx="10"/>
   <rect x="157"
          y="869"
          width="36"
          height="32"
          class="terminal"
          rx="10"/>
   <text class="terminal" x="167" y="889">-&gt;</text>
   <a xmlns:xlink="http://www.w3.org/1999/xlink"
       xlink:href="#expr"
       xlink:title="expr">
      <rect x="267" y="123" width="48" height="32"/>
      <rect x="265" y="121" width="48" height="32" class="nonterminal"/>
      <text class="nonterminal" x="275" y="141">expr</text>
   </a>
   <rect x="139" y="937" width="62" height="32" rx="10"/>
   <rect x="137"
          y="935"
          width="62"
          height="32"
          class="terminal"
          rx="10"/>
   <text class="terminal" x="147" y="955">match</text>
   <rect x="241" y="937" width="26" height="32" rx="10"/>
   <rect x="239"
          y="935"
          width="26"
          height="32"
          class="terminal"
          rx="10"/>
   <text class="terminal" x="249" y="955">|</text>
   <a xmlns:xlink="http://www.w3.org/1999/xlink"
       xlink:href="#STRING"
       xlink:title="STRING">
      <rect x="287" y="937" width="66" height="32"/>
      <rect x="285" y="935" width="66" height="32" class="nonterminal"/>
      <text class="nonterminal" x="295" y="955">STRING</text>
   </a>
   <rect x="373" y="937" width="24" height="32" rx="10"/>
   <rect x="371"
          y="935"
          width="24"
          height="32"
          class="terminal"
          rx="10"/>
   <text class="terminal" x="381" y="955">:</text>
   <a xmlns:xlink="http://www.w3.org/1999/xlink"
       xlink:href="#identOrHole"
       xlink:title="identOrHole">
      <rect x="417" y="937" width="94" height="32"/>
      <rect x="415" y="935" width="94" height="32" class="nonterminal"/>
      <text class="nonterminal" x="425" y="955">identOrHole</text>
   </a>
   <rect x="531" y="937" width="40" height="32" rx="10"/>
   <rect x="529"
          y="935"
          width="40"
          height="32"
          class="terminal"
          rx="10"/>
   <text class="terminal" x="539" y="955">=&gt;</text>
   <a xmlns:xlink="http://www.w3.org/1999/xlink"
       xlink:href="#expr"
       xlink:title="expr">
      <rect x="591" y="937" width="48" height="32"/>
      <rect x="589" y="935" width="48" height="32" class="nonterminal"/>
      <text class="nonterminal" x="599" y="955">expr</text>
   </a>
   <a xmlns:xlink="http://www.w3.org/1999/xlink"
       xlink:href="#lambda"
       xlink:title="lambda">
      <rect x="51" y="981" width="66" height="32"/>
      <rect x="49" y="979" width="66" height="32" class="nonterminal"/>
      <text class="nonterminal" x="59" y="999">lambda</text>
   </a>
   <a xmlns:xlink="http://www.w3.org/1999/xlink"
       xlink:href="#normalCallName"
       xlink:title="normalCallName">
      <rect x="51" y="1025" width="124" height="32"/>
      <rect x="49" y="1023" width="124" height="32" class="nonterminal"/>
      <text class="nonterminal" x="59" y="1043">normalCallName</text>
   </a>
   <a xmlns:xlink="http://www.w3.org/1999/xlink"
       xlink:href="#argList"
       xlink:title="argList">
      <rect x="195" y="1025" width="62" height="32"/>
      <rect x="193" y="1023" width="62" height="32" class="nonterminal"/>
      <text class="nonterminal" x="203" y="1043">argList</text>
   </a>
   <rect x="71" y="1069" width="26" height="32" rx="10"/>
   <rect x="69"
          y="1067"
          width="26"
          height="32"
          class="terminal"
          rx="10"/>
   <text class="terminal" x="79" y="1087">-</text>
   <rect x="71" y="1113" width="28" height="32" rx="10"/>
   <rect x="69"
          y="1111"
          width="28"
          height="32"
          class="terminal"
          rx="10"/>
   <text class="terminal" x="79" y="1131">if</text>
   <rect x="119" y="1113" width="26" height="32" rx="10"/>
   <rect x="117"
          y="1111"
          width="26"
          height="32"
          class="terminal"
          rx="10"/>
   <text class="terminal" x="127" y="1131">(</text>
   <a xmlns:xlink="http://www.w3.org/1999/xlink"
       xlink:href="#expr"
       xlink:title="expr">
      <rect x="165" y="1113" width="48" height="32"/>
      <rect x="163" y="1111" width="48" height="32" class="nonterminal"/>
      <text class="nonterminal" x="173" y="1131">expr</text>
   </a>
   <rect x="233" y="1113" width="26" height="32" rx="10"/>
   <rect x="231"
          y="1111"
          width="26"
          height="32"
          class="terminal"
          rx="10"/>
   <text class="terminal" x="241" y="1131">)</text>
   <a xmlns:xlink="http://www.w3.org/1999/xlink"
       xlink:href="#expr"
       xlink:title="expr">
      <rect x="279" y="1113" width="48" height="32"/>
      <rect x="277" y="1111" width="48" height="32" class="nonterminal"/>
      <text class="nonterminal" x="287" y="1131">expr</text>
   </a>
   <rect x="347" y="1113" width="46" height="32" rx="10"/>
   <rect x="345"
          y="1111"
          width="46"
          height="32"
          class="terminal"
          rx="10"/>
   <text class="terminal" x="355" y="1131">else</text>
   <a xmlns:xlink="http://www.w3.org/1999/xlink"
       xlink:href="#operDef"
       xlink:title="operDef">
      <rect x="71" y="1157" width="70" height="32"/>
      <rect x="69" y="1155" width="70" height="32" class="nonterminal"/>
      <text class="nonterminal" x="79" y="1175">operDef</text>
   </a>
   <rect x="71" y="1201" width="66" height="32" rx="10"/>
   <rect x="69"
          y="1199"
          width="66"
          height="32"
          class="terminal"
          rx="10"/>
   <text class="terminal" x="79" y="1219">nondet</text>
   <a xmlns:xlink="http://www.w3.org/1999/xlink"
       xlink:href="#IDENTIFIER"
       xlink:title="IDENTIFIER">
      <rect x="157" y="1201" width="92" height="32"/>
      <rect x="155" y="1199" width="92" height="32" class="nonterminal"/>
      <text class="nonterminal" x="165" y="1219">IDENTIFIER</text>
   </a>
   <rect x="289" y="1233" width="24" height="32" rx="10"/>
   <rect x="287"
          y="1231"
          width="24"
          height="32"
          class="terminal"
          rx="10"/>
   <text class="terminal" x="297" y="1251">:</text>
   <a xmlns:xlink="http://www.w3.org/1999/xlink"
       xlink:href="#type"
       xlink:title="type">
      <rect x="333" y="1233" width="48" height="32"/>
      <rect x="331" y="1231" width="48" height="32" class="nonterminal"/>
      <text class="nonterminal" x="341" y="1251">type</text>
   </a>
   <rect x="421" y="1201" width="30" height="32" rx="10"/>
   <rect x="419"
          y="1199"
          width="30"
          height="32"
          class="terminal"
          rx="10"/>
   <text class="terminal" x="429" y="1219">=</text>
   <a xmlns:xlink="http://www.w3.org/1999/xlink"
       xlink:href="#expr"
       xlink:title="expr">
      <rect x="471" y="1201" width="48" height="32"/>
      <rect x="469" y="1199" width="48" height="32" class="nonterminal"/>
      <text class="nonterminal" x="479" y="1219">expr</text>
   </a>
   <rect x="559" y="1233" width="24" height="32" rx="10"/>
   <rect x="557"
          y="1231"
          width="24"
          height="32"
          class="terminal"
          rx="10"/>
   <text class="terminal" x="567" y="1251">;</text>
   <a xmlns:xlink="http://www.w3.org/1999/xlink"
       xlink:href="#expr"
       xlink:title="expr">
      <rect x="643" y="1069" width="48" height="32"/>
      <rect x="641" y="1067" width="48" height="32" class="nonterminal"/>
      <text class="nonterminal" x="651" y="1087">expr</text>
   </a>
   <a xmlns:xlink="http://www.w3.org/1999/xlink"
       xlink:href="#IDENTIFIER"
       xlink:title="IDENTIFIER">
      <rect x="51" y="1277" width="92" height="32"/>
      <rect x="49" y="1275" width="92" height="32" class="nonterminal"/>
      <text class="nonterminal" x="59" y="1295">IDENTIFIER</text>
   </a>
   <rect x="183" y="1309" width="24" height="32" rx="10"/>
   <rect x="181"
          y="1307"
          width="24"
          height="32"
          class="terminal"
          rx="10"/>
   <text class="terminal" x="191" y="1327">'</text>
   <rect x="227" y="1309" width="30" height="32" rx="10"/>
   <rect x="225"
          y="1307"
          width="30"
          height="32"
          class="terminal"
          rx="10"/>
   <text class="terminal" x="235" y="1327">=</text>
   <a xmlns:xlink="http://www.w3.org/1999/xlink"
       xlink:href="#expr"
       xlink:title="expr">
      <rect x="277" y="1309" width="48" height="32"/>
      <rect x="275" y="1307" width="48" height="32" class="nonterminal"/>
      <text class="nonterminal" x="285" y="1327">expr</text>
   </a>
   <rect x="91" y="1397" width="44" height="32" rx="10"/>
   <rect x="89"
          y="1395"
          width="44"
          height="32"
          class="terminal"
          rx="10"/>
   <text class="terminal" x="99" y="1415">and</text>
   <rect x="91" y="1441" width="34" height="32" rx="10"/>
   <rect x="89"
          y="1439"
          width="34"
          height="32"
          class="terminal"
          rx="10"/>
   <text class="terminal" x="99" y="1459">or</text>
   <rect x="91" y="1485" width="36" height="32" rx="10"/>
   <rect x="89"
          y="1483"
          width="36"
          height="32"
          class="terminal"
          rx="10"/>
   <text class="terminal" x="99" y="1503">all</text>
   <rect x="91" y="1529" width="44" height="32" rx="10"/>
   <rect x="89"
          y="1527"
          width="44"
          height="32"
          class="terminal"
          rx="10"/>
   <text class="terminal" x="99" y="1547">any</text>
   <rect x="175" y="1397" width="28" height="32" rx="10"/>
   <rect x="173"
          y="1395"
          width="28"
          height="32"
          class="terminal"
          rx="10"/>
   <text class="terminal" x="183" y="1415">{</text>
   <a xmlns:xlink="http://www.w3.org/1999/xlink"
       xlink:href="#expr"
       xlink:title="expr">
      <rect x="243" y="1397" width="48" height="32"/>
      <rect x="241" y="1395" width="48" height="32" class="nonterminal"/>
      <text class="nonterminal" x="251" y="1415">expr</text>
   </a>
   <rect x="243" y="1353" width="24" height="32" rx="10"/>
   <rect x="241"
          y="1351"
          width="24"
          height="32"
          class="terminal"
          rx="10"/>
   <text class="terminal" x="251" y="1371">,</text>
   <rect x="351" y="1429" width="24" height="32" rx="10"/>
   <rect x="349"
          y="1427"
          width="24"
          height="32"
          class="terminal"
          rx="10"/>
   <text class="terminal" x="359" y="1447">,</text>
   <rect x="71" y="1617" width="28" height="32" rx="10"/>
   <rect x="69"
          y="1615"
          width="28"
          height="32"
          class="terminal"
          rx="10"/>
   <text class="terminal" x="79" y="1635">{</text>
   <a xmlns:xlink="http://www.w3.org/1999/xlink"
       xlink:href="#IDENTIFIER"
       xlink:title="IDENTIFIER">
      <rect x="159" y="1617" width="92" height="32"/>
      <rect x="157" y="1615" width="92" height="32" class="nonterminal"/>
      <text class="nonterminal" x="167" y="1635">IDENTIFIER</text>
   </a>
   <rect x="271" y="1617" width="24" height="32" rx="10"/>
   <rect x="269"
          y="1615"
          width="24"
          height="32"
          class="terminal"
          rx="10"/>
   <text class="terminal" x="279" y="1635">:</text>
   <a xmlns:xlink="http://www.w3.org/1999/xlink"
       xlink:href="#expr"
       xlink:title="expr">
      <rect x="315" y="1617" width="48" height="32"/>
      <rect x="313" y="1615" width="48" height="32" class="nonterminal"/>
      <text class="nonterminal" x="323" y="1635">expr</text>
   </a>
   <rect x="159" y="1573" width="24" height="32" rx="10"/>
   <rect x="157"
          y="1571"
          width="24"
          height="32"
          class="terminal"
          rx="10"/>
   <text class="terminal" x="167" y="1591">,</text>
   <rect x="423" y="1649" width="24" height="32" rx="10"/>
   <rect x="421"
          y="1647"
          width="24"
          height="32"
          class="terminal"
          rx="10"/>
   <text class="terminal" x="431" y="1667">,</text>
   <a xmlns:xlink="http://www.w3.org/1999/xlink"
       xlink:href="#expr"
       xlink:title="expr">
      <rect x="139" y="1693" width="48" height="32"/>
      <rect x="137" y="1691" width="48" height="32" class="nonterminal"/>
      <text class="nonterminal" x="147" y="1711">expr</text>
   </a>
   <rect x="527" y="1397" width="28" height="32" rx="10"/>
   <rect x="525"
          y="1395"
          width="28"
          height="32"
          class="terminal"
          rx="10"/>
   <text class="terminal" x="535" y="1415">}</text>
   <a xmlns:xlink="http://www.w3.org/1999/xlink"
       xlink:href="#INT"
       xlink:title="INT">
      <rect x="51" y="1737" width="40" height="32"/>
      <rect x="49" y="1735" width="40" height="32" class="nonterminal"/>
      <text class="nonterminal" x="59" y="1755">INT</text>
   </a>
   <a xmlns:xlink="http://www.w3.org/1999/xlink"
       xlink:href="#BOOL"
       xlink:title="BOOL">
      <rect x="51" y="1781" width="54" height="32"/>
      <rect x="49" y="1779" width="54" height="32" class="nonterminal"/>
      <text class="nonterminal" x="59" y="1799">BOOL</text>
   </a>
   <a xmlns:xlink="http://www.w3.org/1999/xlink"
       xlink:href="#STRING"
       xlink:title="STRING">
      <rect x="51" y="1825" width="66" height="32"/>
      <rect x="49" y="1823" width="66" height="32" class="nonterminal"/>
      <text class="nonterminal" x="59" y="1843">STRING</text>
   </a>
   <rect x="51" y="1891" width="26" height="32" rx="10"/>
   <rect x="49"
          y="1889"
          width="26"
          height="32"
          class="terminal"
          rx="10"/>
   <text class="terminal" x="59" y="1909">(</text>
   <a xmlns:xlink="http://www.w3.org/1999/xlink"
       xlink:href="#expr"
       xlink:title="expr">
      <rect x="97" y="1891" width="48" height="32"/>
      <rect x="95" y="1889" width="48" height="32" class="nonterminal"/>
      <text class="nonterminal" x="105" y="1909">expr</text>
   </a>
   <rect x="205" y="1891" width="24" height="32" rx="10"/>
   <rect x="203"
          y="1889"
          width="24"
          height="32"
          class="terminal"
          rx="10"/>
   <text class="terminal" x="213" y="1909">,</text>
   <a xmlns:xlink="http://www.w3.org/1999/xlink"
       xlink:href="#expr"
       xlink:title="expr">
      <rect x="249" y="1891" width="48" height="32"/>
      <rect x="247" y="1889" width="48" height="32" class="nonterminal"/>
      <text class="nonterminal" x="257" y="1909">expr</text>
   </a>
   <rect x="357" y="1923" width="24" height="32" rx="10"/>
   <rect x="355"
          y="1921"
          width="24"
          height="32"
          class="terminal"
          rx="10"/>
   <text class="terminal" x="365" y="1941">,</text>
   <rect x="441" y="1891" width="26" height="32" rx="10"/>
   <rect x="439"
          y="1889"
          width="26"
          height="32"
          class="terminal"
          rx="10"/>
   <text class="terminal" x="449" y="1909">)</text>
   <rect x="51" y="2033" width="26" height="32" rx="10"/>
   <rect x="49"
          y="2031"
          width="26"
          height="32"
          class="terminal"
          rx="10"/>
   <text class="terminal" x="59" y="2051">[</text>
   <a xmlns:xlink="http://www.w3.org/1999/xlink"
       xlink:href="#expr"
       xlink:title="expr">
      <rect x="137" y="2033" width="48" height="32"/>
      <rect x="135" y="2031" width="48" height="32" class="nonterminal"/>
      <text class="nonterminal" x="145" y="2051">expr</text>
   </a>
   <rect x="137" y="1989" width="24" height="32" rx="10"/>
   <rect x="135"
          y="1987"
          width="24"
          height="32"
          class="terminal"
          rx="10"/>
   <text class="terminal" x="145" y="2007">,</text>
   <rect x="265" y="2065" width="24" height="32" rx="10"/>
   <rect x="263"
          y="2063"
          width="24"
          height="32"
          class="terminal"
          rx="10"/>
   <text class="terminal" x="273" y="2083">,</text>
   <rect x="329" y="2033" width="26" height="32" rx="10"/>
   <rect x="327"
          y="2031"
          width="26"
          height="32"
          class="terminal"
          rx="10"/>
   <text class="terminal" x="337" y="2051">]</text>
   <path class="line"
          d="m17 17 h2 m20 0 h10 m48 0 h10 m20 0 h10 m24 0 h10 m0 0 h10 m108 0 h10 m20 0 h10 m0 0 h72 m-102 0 h20 m82 0 h20 m-122 0 q10 0 10 10 m102 0 q0 -10 10 -10 m-112 10 v12 m102 0 v-12 m-102 12 q0 10 10 10 m82 0 q10 0 10 -10 m-92 10 h10 m62 0 h10 m20 -32 h246 m-560 0 h20 m540 0 h20 m-580 0 q10 0 10 10 m560 0 q0 -10 10 -10 m-570 10 v56 m560 0 v-56 m-560 56 q0 10 10 10 m540 0 q10 0 10 -10 m-550 10 h10 m26 0 h10 m0 0 h10 m48 0 h10 m0 0 h10 m26 0 h10 m0 0 h380 m-550 -10 v20 m560 0 v-20 m-560 20 v24 m560 0 v-24 m-560 24 q0 10 10 10 m540 0 q10 0 10 -10 m-530 10 h10 m30 0 h10 m0 0 h38 m-108 0 h20 m88 0 h20 m-128 0 q10 0 10 10 m108 0 q0 -10 10 -10 m-118 10 v24 m108 0 v-24 m-108 24 q0 10 10 10 m88 0 q10 0 10 -10 m-98 10 h10 m28 0 h10 m0 0 h40 m-98 -10 v20 m108 0 v-20 m-108 20 v24 m108 0 v-24 m-108 24 q0 10 10 10 m88 0 q10 0 10 -10 m-98 10 h10 m28 0 h10 m0 0 h40 m-98 -10 v20 m108 0 v-20 m-108 20 v24 m108 0 v-24 m-108 24 q0 10 10 10 m88 0 q10 0 10 -10 m-98 10 h10 m34 0 h10 m0 0 h34 m-98 -10 v20 m108 0 v-20 m-108 20 v24 m108 0 v-24 m-108 24 q0 10 10 10 m88 0 q10 0 10 -10 m-98 10 h10 m30 0 h10 m0 0 h38 m-98 -10 v20 m108 0 v-20 m-108 20 v24 m108 0 v-24 m-108 24 q0 10 10 10 m88 0 q10 0 10 -10 m-98 10 h10 m26 0 h10 m0 0 h42 m-98 -10 v20 m108 0 v-20 m-108 20 v24 m108 0 v-24 m-108 24 q0 10 10 10 m88 0 q10 0 10 -10 m-98 10 h10 m30 0 h10 m0 0 h38 m-98 -10 v20 m108 0 v-20 m-108 20 v24 m108 0 v-24 m-108 24 q0 10 10 10 m88 0 q10 0 10 -10 m-98 10 h10 m30 0 h10 m0 0 h38 m-98 -10 v20 m108 0 v-20 m-108 20 v24 m108 0 v-24 m-108 24 q0 10 10 10 m88 0 q10 0 10 -10 m-98 10 h10 m40 0 h10 m0 0 h28 m-98 -10 v20 m108 0 v-20 m-108 20 v24 m108 0 v-24 m-108 24 q0 10 10 10 m88 0 q10 0 10 -10 m-98 10 h10 m40 0 h10 m0 0 h28 m-98 -10 v20 m108 0 v-20 m-108 20 v24 m108 0 v-24 m-108 24 q0 10 10 10 m88 0 q10 0 10 -10 m-98 10 h10 m34 0 h10 m0 0 h34 m-98 -10 v20 m108 0 v-20 m-108 20 v24 m108 0 v-24 m-108 24 q0 10 10 10 m88 0 q10 0 10 -10 m-98 10 h10 m40 0 h10 m0 0 h28 m-98 -10 v20 m108 0 v-20 m-108 20 v24 m108 0 v-24 m-108 24 q0 10 10 10 m88 0 q10 0 10 -10 m-98 10 h10 m30 0 h10 m0 0 h38 m-98 -10 v20 m108 0 v-20 m-108 20 v24 m108 0 v-24 m-108 24 q0 10 10 10 m88 0 q10 0 10 -10 m-98 10 h10 m44 0 h10 m0 0 h24 m-98 -10 v20 m108 0 v-20 m-108 20 v24 m108 0 v-24 m-108 24 q0 10 10 10 m88 0 q10 0 10 -10 m-98 10 h10 m34 0 h10 m0 0 h34 m-98 -10 v20 m108 0 v-20 m-108 20 v24 m108 0 v-24 m-108 24 q0 10 10 10 m88 0 q10 0 10 -10 m-98 10 h10 m34 0 h10 m0 0 h34 m-98 -10 v20 m108 0 v-20 m-108 20 v24 m108 0 v-24 m-108 24 q0 10 10 10 m88 0 q10 0 10 -10 m-98 10 h10 m68 0 h10 m-98 -10 v20 m108 0 v-20 m-108 20 v24 m108 0 v-24 m-108 24 q0 10 10 10 m88 0 q10 0 10 -10 m-98 10 h10 m36 0 h10 m0 0 h32 m20 -748 h10 m48 0 h10 m0 0 h344 m-550 -10 v20 m560 0 v-20 m-560 20 v794 m560 0 v-794 m-560 794 q0 10 10 10 m540 0 q10 0 10 -10 m-550 10 h10 m62 0 h10 m20 0 h10 m26 0 h10 m0 0 h10 m66 0 h10 m0 0 h10 m24 0 h10 m0 0 h10 m94 0 h10 m0 0 h10 m40 0 h10 m0 0 h10 m48 0 h10 m-438 0 l20 0 m-1 0 q-9 0 -9 -10 l0 -12 q0 -10 10 -10 m418 32 l20 0 m-20 0 q10 0 10 -10 l0 -12 q0 -10 -10 -10 m-418 0 h10 m0 0 h408 m40 -902 h12 m-680 0 h20 m660 0 h20 m-700 0 q10 0 10 10 m680 0 q0 -10 10 -10 m-690 10 v958 m680 0 v-958 m-680 958 q0 10 10 10 m660 0 q10 0 10 -10 m-670 10 h10 m66 0 h10 m0 0 h574 m-670 -10 v20 m680 0 v-20 m-680 20 v24 m680 0 v-24 m-680 24 q0 10 10 10 m660 0 q10 0 10 -10 m-670 10 h10 m124 0 h10 m0 0 h10 m62 0 h10 m0 0 h434 m-670 -10 v20 m680 0 v-20 m-680 20 v24 m680 0 v-24 m-680 24 q0 10 10 10 m660 0 q10 0 10 -10 m-650 10 h10 m26 0 h10 m0 0 h506 m-572 0 h20 m552 0 h20 m-592 0 q10 0 10 10 m572 0 q0 -10 10 -10 m-582 10 v24 m572 0 v-24 m-572 24 q0 10 10 10 m552 0 q10 0 10 -10 m-562 10 h10 m28 0 h10 m0 0 h10 m26 0 h10 m0 0 h10 m48 0 h10 m0 0 h10 m26 0 h10 m0 0 h10 m48 0 h10 m0 0 h10 m46 0 h10 m0 0 h210 m-562 -10 v20 m572 0 v-20 m-572 20 v24 m572 0 v-24 m-572 24 q0 10 10 10 m552 0 q10 0 10 -10 m-562 10 h10 m70 0 h10 m0 0 h462 m-562 -10 v20 m572 0 v-20 m-572 20 v24 m572 0 v-24 m-572 24 q0 10 10 10 m552 0 q10 0 10 -10 m-562 10 h10 m66 0 h10 m0 0 h10 m92 0 h10 m20 0 h10 m0 0 h102 m-132 0 h20 m112 0 h20 m-152 0 q10 0 10 10 m132 0 q0 -10 10 -10 m-142 10 v12 m132 0 v-12 m-132 12 q0 10 10 10 m112 0 q10 0 10 -10 m-122 10 h10 m24 0 h10 m0 0 h10 m48 0 h10 m20 -32 h10 m30 0 h10 m0 0 h10 m48 0 h10 m20 0 h10 m0 0 h34 m-64 0 h20 m44 0 h20 m-84 0 q10 0 10 10 m64 0 q0 -10 10 -10 m-74 10 v12 m64 0 v-12 m-64 12 q0 10 10 10 m44 0 q10 0 10 -10 m-54 10 h10 m24 0 h10 m40 -164 h10 m48 0 h10 m-670 -10 v20 m680 0 v-20 m-680 20 v188 m680 0 v-188 m-680 188 q0 10 10 10 m660 0 q10 0 10 -10 m-670 10 h10 m92 0 h10 m20 0 h10 m0 0 h152 m-182 0 h20 m162 0 h20 m-202 0 q10 0 10 10 m182 0 q0 -10 10 -10 m-192 10 v12 m182 0 v-12 m-182 12 q0 10 10 10 m162 0 q10 0 10 -10 m-172 10 h10 m24 0 h10 m0 0 h10 m30 0 h10 m0 0 h10 m48 0 h10 m20 -32 h346 m-670 -10 v20 m680 0 v-20 m-680 20 v100 m680 0 v-100 m-680 100 q0 10 10 10 m660 0 q10 0 10 -10 m-630 10 h10 m44 0 h10 m-84 0 h20 m64 0 h20 m-104 0 q10 0 10 10 m84 0 q0 -10 10 -10 m-94 10 v24 m84 0 v-24 m-84 24 q0 10 10 10 m64 0 q10 0 10 -10 m-74 10 h10 m34 0 h10 m0 0 h10 m-74 -10 v20 m84 0 v-20 m-84 20 v24 m84 0 v-24 m-84 24 q0 10 10 10 m64 0 q10 0 10 -10 m-74 10 h10 m36 0 h10 m0 0 h8 m-74 -10 v20 m84 0 v-20 m-84 20 v24 m84 0 v-24 m-84 24 q0 10 10 10 m64 0 q10 0 10 -10 m-74 10 h10 m44 0 h10 m20 -132 h10 m28 0 h10 m20 0 h10 m48 0 h10 m-88 0 l20 0 m-1 0 q-9 0 -9 -10 l0 -24 q0 -10 10 -10 m68 44 l20 0 m-20 0 q10 0 10 -10 l0 -24 q0 -10 -10 -10 m-68 0 h10 m24 0 h10 m0 0 h24 m40 44 h10 m0 0 h34 m-64 0 h20 m44 0 h20 m-84 0 q10 0 10 10 m64 0 q0 -10 10 -10 m-74 10 v12 m64 0 v-12 m-64 12 q0 10 10 10 m44 0 q10 0 10 -10 m-54 10 h10 m24 0 h10 m20 -32 h92 m-456 0 h20 m436 0 h20 m-476 0 q10 0 10 10 m456 0 q0 -10 10 -10 m-466 10 v200 m456 0 v-200 m-456 200 q0 10 10 10 m436 0 q10 0 10 -10 m-446 10 h10 m28 0 h10 m40 0 h10 m92 0 h10 m0 0 h10 m24 0 h10 m0 0 h10 m48 0 h10 m-244 0 l20 0 m-1 0 q-9 0 -9 -10 l0 -24 q0 -10 10 -10 m224 44 l20 0 m-20 0 q10 0 10 -10 l0 -24 q0 -10 -10 -10 m-224 0 h10 m24 0 h10 m0 0 h180 m40 44 h10 m0 0 h34 m-64 0 h20 m44 0 h20 m-84 0 q10 0 10 10 m64 0 q0 -10 10 -10 m-74 10 v12 m64 0 v-12 m-64 12 q0 10 10 10 m44 0 q10 0 10 -10 m-54 10 h10 m24 0 h10 m-348 -32 h20 m348 0 h20 m-388 0 q10 0 10 10 m368 0 q0 -10 10 -10 m-378 10 v56 m368 0 v-56 m-368 56 q0 10 10 10 m348 0 q10 0 10 -10 m-358 10 h10 m48 0 h10 m0 0 h280 m40 -296 h10 m28 0 h10 m0 0 h136 m-670 -10 v20 m680 0 v-20 m-680 20 v320 m680 0 v-320 m-680 320 q0 10 10 10 m660 0 q10 0 10 -10 m-670 10 h10 m40 0 h10 m0 0 h600 m-670 -10 v20 m680 0 v-20 m-680 20 v24 m680 0 v-24 m-680 24 q0 10 10 10 m660 0 q10 0 10 -10 m-670 10 h10 m54 0 h10 m0 0 h586 m-670 -10 v20 m680 0 v-20 m-680 20 v24 m680 0 v-24 m-680 24 q0 10 10 10 m660 0 q10 0 10 -10 m-670 10 h10 m66 0 h10 m0 0 h574 m-670 -10 v20 m680 0 v-20 m-680 20 v46 m680 0 v-46 m-680 46 q0 10 10 10 m660 0 q10 0 10 -10 m-670 10 h10 m26 0 h10 m0 0 h10 m48 0 h10 m40 0 h10 m24 0 h10 m0 0 h10 m48 0 h10 m-132 0 l20 0 m-1 0 q-9 0 -9 -10 l0 -12 q0 -10 10 -10 m112 32 l20 0 m-20 0 q10 0 10 -10 l0 -12 q0 -10 -10 -10 m-112 0 h10 m0 0 h102 m40 32 h10 m0 0 h34 m-64 0 h20 m44 0 h20 m-84 0 q10 0 10 10 m64 0 q0 -10 10 -10 m-74 10 v12 m64 0 v-12 m-64 12 q0 10 10 10 m44 0 q10 0 10 -10 m-54 10 h10 m24 0 h10 m-236 -32 h20 m236 0 h20 m-276 0 q10 0 10 10 m256 0 q0 -10 10 -10 m-266 10 v46 m256 0 v-46 m-256 46 q0 10 10 10 m236 0 q10 0 10 -10 m-246 10 h10 m0 0 h226 m20 -66 h10 m26 0 h10 m0 0 h224 m-670 -10 v20 m680 0 v-20 m-680 20 v122 m680 0 v-122 m-680 122 q0 10 10 10 m660 0 q10 0 10 -10 m-670 10 h10 m26 0 h10 m40 0 h10 m48 0 h10 m-88 0 l20 0 m-1 0 q-9 0 -9 -10 l0 -24 q0 -10 10 -10 m68 44 l20 0 m-20 0 q10 0 10 -10 l0 -24 q0 -10 -10 -10 m-68 0 h10 m24 0 h10 m0 0 h24 m-108 44 h20 m108 0 h20 m-148 0 q10 0 10 10 m128 0 q0 -10 10 -10 m-138 10 v14 m128 0 v-14 m-128 14 q0 10 10 10 m108 0 q10 0 10 -10 m-118 10 h10 m0 0 h98 m40 -34 h10 m0 0 h34 m-64 0 h20 m44 0 h20 m-84 0 q10 0 10 10 m64 0 q0 -10 10 -10 m-74 10 v12 m64 0 v-12 m-64 12 q0 10 10 10 m44 0 q10 0 10 -10 m-54 10 h10 m24 0 h10 m20 -32 h10 m26 0 h10 m0 0 h336 m23 -2030 h-3"/>
   <polygon points="729 17 737 13 737 21"/>
   <polygon points="729 17 721 13 721 21"/>
</svg>
