<?xml version="1.0" encoding="UTF-8"?>
<svg xmlns="http://www.w3.org/2000/svg" width="937" height="157">
   <defs>
      <style type="text/css">
    @namespace "http://www.w3.org/2000/svg";
    .line                 {fill: none; stroke: #332900; stroke-width: 1;}
    .bold-line            {stroke: #141000; shape-rendering: crispEdges; stroke-width: 2;}
    .thin-line            {stroke: #1F1800; shape-rendering: crispEdges}
    .filled               {fill: #332900; stroke: none;}
    text.terminal         {font-family: Verdana, Sans-serif;
                            font-size: 12px;
                            fill: #141000;
                            font-weight: bold;
                          }
    text.nonterminal      {font-family: Verdana, Sans-serif;
                            font-size: 12px;
                            fill: #1A1400;
                            font-weight: normal;
                          }
    text.regexp           {font-family: Verdana, Sans-serif;
                            font-size: 12px;
                            fill: #1F1800;
                            font-weight: normal;
                          }
    rect, circle, polygon {fill: #332900; stroke: #332900;}
    rect.terminal         {fill: #FFDB4D; stroke: #332900; stroke-width: 1;}
    rect.nonterminal      {fill: #FFEC9E; stroke: #332900; stroke-width: 1;}
    rect.text             {fill: none; stroke: none;}
    polygon.regexp        {fill: #FFF4C7; stroke: #332900; stroke-width: 1;}
  </style>
   </defs>
   <polygon points="9 17 1 13 1 21"/>
   <polygon points="17 17 9 13 9 21"/>
   <rect x="31" y="3" width="70" height="32" rx="10"/>
   <rect x="29"
          y="1"
          width="70"
          height="32"
          class="terminal"
          rx="10"/>
   <text class="terminal" x="39" y="21">module</text>
   <a xmlns:xlink="http://www.w3.org/1999/xlink"
       xlink:href="#IDENTIFIER"
       xlink:title="IDENTIFIER">
      <rect x="121" y="3" width="92" height="32"/>
      <rect x="119" y="1" width="92" height="32" class="nonterminal"/>
      <text class="nonterminal" x="129" y="21">IDENTIFIER</text>
   </a>
   <rect x="233" y="3" width="30" height="32" rx="10"/>
   <rect x="231"
          y="1"
          width="30"
          height="32"
          class="terminal"
          rx="10"/>
   <text class="terminal" x="241" y="21">=</text>
   <a xmlns:xlink="http://www.w3.org/1999/xlink"
       xlink:href="#IDENTIFIER"
       xlink:title="IDENTIFIER">
      <rect x="283" y="3" width="92" height="32"/>
      <rect x="281" y="1" width="92" height="32" class="nonterminal"/>
      <text class="nonterminal" x="291" y="21">IDENTIFIER</text>
   </a>
   <rect x="395" y="3" width="26" height="32" rx="10"/>
   <rect x="393"
          y="1"
          width="26"
          height="32"
          class="terminal"
          rx="10"/>
   <text class="terminal" x="403" y="21">(</text>
   <rect x="461" y="3" width="28" height="32" rx="10"/>
   <rect x="459"
          y="1"
          width="28"
          height="32"
          class="terminal"
          rx="10"/>
   <text class="terminal" x="469" y="21">*</text>
   <a xmlns:xlink="http://www.w3.org/1999/xlink"
       xlink:href="#IDENTIFIER"
       xlink:title="IDENTIFIER">
      <rect x="481" y="91" width="92" height="32"/>
      <rect x="479" y="89" width="92" height="32" class="nonterminal"/>
      <text class="nonterminal" x="489" y="109">IDENTIFIER</text>
   </a>
   <rect x="593" y="91" width="30" height="32" rx="10"/>
   <rect x="591"
          y="89"
          width="30"
          height="32"
          class="terminal"
          rx="10"/>
   <text class="terminal" x="601" y="109">=</text>
   <a xmlns:xlink="http://www.w3.org/1999/xlink"
       xlink:href="#expr"
       xlink:title="expr">
      <rect x="643" y="91" width="48" height="32"/>
      <rect x="641" y="89" width="48" height="32" class="nonterminal"/>
      <text class="nonterminal" x="651" y="109">expr</text>
   </a>
   <rect x="481" y="47" width="24" height="32" rx="10"/>
   <rect x="479"
          y="45"
          width="24"
          height="32"
          class="terminal"
          rx="10"/>
   <text class="terminal" x="489" y="65">,</text>
   <rect x="751" y="123" width="24" height="32" rx="10"/>
   <rect x="749"
          y="121"
          width="24"
          height="32"
          class="terminal"
          rx="10"/>
   <text class="terminal" x="759" y="141">,</text>
   <rect x="795" y="123" width="28" height="32" rx="10"/>
   <rect x="793"
          y="121"
          width="28"
          height="32"
          class="terminal"
          rx="10"/>
   <text class="terminal" x="803" y="141">*</text>
   <rect x="883" y="3" width="26" height="32" rx="10"/>
   <rect x="881"
          y="1"
          width="26"
          height="32"
          class="terminal"
          rx="10"/>
   <text class="terminal" x="891" y="21">)</text>
   <path class="line"
          d="m17 17 h2 m0 0 h10 m70 0 h10 m0 0 h10 m92 0 h10 m0 0 h10 m30 0 h10 m0 0 h10 m92 0 h10 m0 0 h10 m26 0 h10 m20 0 h10 m28 0 h10 m0 0 h354 m-422 0 h20 m402 0 h20 m-442 0 q10 0 10 10 m422 0 q0 -10 10 -10 m-432 10 v68 m422 0 v-68 m-422 68 q0 10 10 10 m402 0 q10 0 10 -10 m-392 10 h10 m92 0 h10 m0 0 h10 m30 0 h10 m0 0 h10 m48 0 h10 m-250 0 l20 0 m-1 0 q-9 0 -9 -10 l0 -24 q0 -10 10 -10 m230 44 l20 0 m-20 0 q10 0 10 -10 l0 -24 q0 -10 -10 -10 m-230 0 h10 m24 0 h10 m0 0 h186 m40 44 h10 m0 0 h82 m-112 0 h20 m92 0 h20 m-132 0 q10 0 10 10 m112 0 q0 -10 10 -10 m-122 10 v12 m112 0 v-12 m-112 12 q0 10 10 10 m92 0 q10 0 10 -10 m-102 10 h10 m24 0 h10 m0 0 h10 m28 0 h10 m40 -120 h10 m26 0 h10 m3 0 h-3"/>
   <polygon points="927 17 935 13 935 21"/>
   <polygon points="927 17 919 13 919 21"/>
</svg>
