<?xml version="1.0" encoding="UTF-8"?>
<svg xmlns="http://www.w3.org/2000/svg" width="411" height="355">
   <defs>
      <style type="text/css">
    @namespace "http://www.w3.org/2000/svg";
    .line                 {fill: none; stroke: #332900; stroke-width: 1;}
    .bold-line            {stroke: #141000; shape-rendering: crispEdges; stroke-width: 2;}
    .thin-line            {stroke: #1F1800; shape-rendering: crispEdges}
    .filled               {fill: #332900; stroke: none;}
    text.terminal         {font-family: Verdana, Sans-serif;
                            font-size: 12px;
                            fill: #141000;
                            font-weight: bold;
                          }
    text.nonterminal      {font-family: Verdana, Sans-serif;
                            font-size: 12px;
                            fill: #1A1400;
                            font-weight: normal;
                          }
    text.regexp           {font-family: Verdana, Sans-serif;
                            font-size: 12px;
                            fill: #1F1800;
                            font-weight: normal;
                          }
    rect, circle, polygon {fill: #332900; stroke: #332900;}
    rect.terminal         {fill: #FFDB4D; stroke: #332900; stroke-width: 1;}
    rect.nonterminal      {fill: #FFEC9E; stroke: #332900; stroke-width: 1;}
    rect.text             {fill: none; stroke: none;}
    polygon.regexp        {fill: #FFF4C7; stroke: #332900; stroke-width: 1;}
  </style>
   </defs>
   <polygon points="9 17 1 13 1 21"/>
   <polygon points="17 17 9 13 9 21"/>
   <rect x="51" y="3" width="28" height="32" rx="10"/>
   <rect x="49"
          y="1"
          width="28"
          height="32"
          class="terminal"
          rx="10"/>
   <text class="terminal" x="59" y="21">0</text>
   <polygon points="51 85 58 69 106 69 113 85 106 101 58 101"/>
   <polygon points="49 83 56 67 104 67 111 83 104 99 56 99" class="regexp"/>
   <text class="regexp" x="64" y="87">[1-9]</text>
   <rect x="193" y="101" width="28" height="32" rx="10"/>
   <rect x="191"
          y="99"
          width="28"
          height="32"
          class="terminal"
          rx="10"/>
   <text class="terminal" x="201" y="119">_</text>
   <polygon points="261 85 268 69 316 69 323 85 316 101 268 101"/>
   <polygon points="259 83 266 67 314 67 321 83 314 99 266 99" class="regexp"/>
   <text class="regexp" x="274" y="87">[0-9]</text>
   <rect x="51" y="233" width="36" height="32" rx="10"/>
   <rect x="49"
          y="231"
          width="36"
          height="32"
          class="terminal"
          rx="10"/>
   <text class="terminal" x="59" y="251">0x</text>
   <polygon points="147 249 154 233 202 233 209 249 202 265 154 265"/>
   <polygon points="145 247 152 231 200 231 207 247 200 263 152 263" class="regexp"/>
   <text class="regexp" x="160" y="251">[0-9]</text>
   <polygon points="147 293 154 277 198 277 205 293 198 309 154 309"/>
   <polygon points="145 291 152 275 196 275 203 291 196 307 152 307" class="regexp"/>
   <text class="regexp" x="160" y="295">[a-f]</text>
   <polygon points="147 337 154 321 200 321 207 337 200 353 154 353"/>
   <polygon points="145 335 152 319 198 319 205 335 198 351 152 351" class="regexp"/>
   <text class="regexp" x="160" y="339">[A-F]</text>
   <rect x="127" y="167" width="28" height="32" rx="10"/>
   <rect x="125"
          y="165"
          width="28"
          height="32"
          class="terminal"
          rx="10"/>
   <text class="terminal" x="135" y="185">_</text>
   <path class="line"
          d="m17 17 h2 m20 0 h10 m28 0 h10 m0 0 h284 m-352 0 h20 m332 0 h20 m-372 0 q10 0 10 10 m352 0 q0 -10 10 -10 m-362 10 v46 m352 0 v-46 m-352 46 q0 10 10 10 m332 0 q10 0 10 -10 m-342 10 h10 m62 0 h10 m60 0 h10 m0 0 h38 m-68 0 h20 m48 0 h20 m-88 0 q10 0 10 10 m68 0 q0 -10 10 -10 m-78 10 v12 m68 0 v-12 m-68 12 q0 10 10 10 m48 0 q10 0 10 -10 m-58 10 h10 m28 0 h10 m20 -32 h10 m62 0 h10 m-190 0 l20 0 m-1 0 q-9 0 -9 -10 l0 -12 q0 -10 10 -10 m170 32 l20 0 m-20 0 q10 0 10 -10 l0 -12 q0 -10 -10 -10 m-170 0 h10 m0 0 h160 m-210 32 h20 m210 0 h20 m-250 0 q10 0 10 10 m230 0 q0 -10 10 -10 m-240 10 v46 m230 0 v-46 m-230 46 q0 10 10 10 m210 0 q10 0 10 -10 m-220 10 h10 m0 0 h200 m-322 -76 v20 m352 0 v-20 m-352 20 v144 m352 0 v-144 m-352 144 q0 10 10 10 m332 0 q10 0 10 -10 m-342 10 h10 m36 0 h10 m40 0 h10 m62 0 h10 m-102 0 h20 m82 0 h20 m-122 0 q10 0 10 10 m102 0 q0 -10 10 -10 m-112 10 v24 m102 0 v-24 m-102 24 q0 10 10 10 m82 0 q10 0 10 -10 m-92 10 h10 m58 0 h10 m0 0 h4 m-92 -10 v20 m102 0 v-20 m-102 20 v24 m102 0 v-24 m-102 24 q0 10 10 10 m82 0 q10 0 10 -10 m-92 10 h10 m60 0 h10 m0 0 h2 m-122 -88 l20 0 m-1 0 q-9 0 -9 -10 l0 -12 q0 -10 10 -10 m122 32 l20 0 m-20 0 q10 0 10 -10 l0 -12 q0 -10 -10 -10 m-122 0 h10 m0 0 h112 m-132 10 l0 -34 q0 -10 10 -10 m132 44 l0 -34 q0 -10 -10 -10 m-122 0 h10 m28 0 h10 m0 0 h74 m20 66 h114 m23 -230 h-3"/>
   <polygon points="401 17 409 13 409 21"/>
   <polygon points="401 17 393 13 393 21"/>
</svg>
