<?xml version="1.0" encoding="UTF-8"?>
<svg xmlns="http://www.w3.org/2000/svg" width="577" height="69">
   <defs>
      <style type="text/css">
    @namespace "http://www.w3.org/2000/svg";
    .line                 {fill: none; stroke: #332900; stroke-width: 1;}
    .bold-line            {stroke: #141000; shape-rendering: crispEdges; stroke-width: 2;}
    .thin-line            {stroke: #1F1800; shape-rendering: crispEdges}
    .filled               {fill: #332900; stroke: none;}
    text.terminal         {font-family: Verdana, Sans-serif;
                            font-size: 12px;
                            fill: #141000;
                            font-weight: bold;
                          }
    text.nonterminal      {font-family: Verdana, Sans-serif;
                            font-size: 12px;
                            fill: #1A1400;
                            font-weight: normal;
                          }
    text.regexp           {font-family: Verdana, Sans-serif;
                            font-size: 12px;
                            fill: #1F1800;
                            font-weight: normal;
                          }
    rect, circle, polygon {fill: #332900; stroke: #332900;}
    rect.terminal         {fill: #FFDB4D; stroke: #332900; stroke-width: 1;}
    rect.nonterminal      {fill: #FFEC9E; stroke: #332900; stroke-width: 1;}
    rect.text             {fill: none; stroke: none;}
    polygon.regexp        {fill: #FFF4C7; stroke: #332900; stroke-width: 1;}
  </style>
   </defs>
   <polygon points="9 33 1 29 1 37"/>
   <polygon points="17 33 9 29 9 37"/>
   <rect x="31" y="19" width="70" height="32" rx="10"/>
   <rect x="29"
          y="17"
          width="70"
          height="32"
          class="terminal"
          rx="10"/>
   <text class="terminal" x="39" y="37">module</text>
   <a xmlns:xlink="http://www.w3.org/1999/xlink"
       xlink:href="#IDENTIFIER"
       xlink:title="IDENTIFIER">
      <rect x="121" y="19" width="92" height="32"/>
      <rect x="119" y="17" width="92" height="32" class="nonterminal"/>
      <text class="nonterminal" x="129" y="37">IDENTIFIER</text>
   </a>
   <rect x="233" y="19" width="28" height="32" rx="10"/>
   <rect x="231"
          y="17"
          width="28"
          height="32"
          class="terminal"
          rx="10"/>
   <text class="terminal" x="241" y="37">{</text>
   <a xmlns:xlink="http://www.w3.org/1999/xlink"
       xlink:href="#docLines"
       xlink:title="docLines">
      <rect x="321" y="19" width="76" height="32"/>
      <rect x="319" y="17" width="76" height="32" class="nonterminal"/>
      <text class="nonterminal" x="329" y="37">docLines</text>
   </a>
   <a xmlns:xlink="http://www.w3.org/1999/xlink"
       xlink:href="#unit"
       xlink:title="unit">
      <rect x="417" y="19" width="44" height="32"/>
      <rect x="415" y="17" width="44" height="32" class="nonterminal"/>
      <text class="nonterminal" x="425" y="37">unit</text>
   </a>
   <rect x="521" y="19" width="28" height="32" rx="10"/>
   <rect x="519"
          y="17"
          width="28"
          height="32"
          class="terminal"
          rx="10"/>
   <text class="terminal" x="529" y="37">}</text>
   <path class="line"
          d="m17 33 h2 m0 0 h10 m70 0 h10 m0 0 h10 m92 0 h10 m0 0 h10 m28 0 h10 m40 0 h10 m76 0 h10 m0 0 h10 m44 0 h10 m-180 0 l20 0 m-1 0 q-9 0 -9 -10 l0 -12 q0 -10 10 -10 m160 32 l20 0 m-20 0 q10 0 10 -10 l0 -12 q0 -10 -10 -10 m-160 0 h10 m0 0 h150 m-200 32 h20 m200 0 h20 m-240 0 q10 0 10 10 m220 0 q0 -10 10 -10 m-230 10 v14 m220 0 v-14 m-220 14 q0 10 10 10 m200 0 q10 0 10 -10 m-210 10 h10 m0 0 h190 m20 -34 h10 m28 0 h10 m3 0 h-3"/>
   <polygon points="567 33 575 29 575 37"/>
   <polygon points="567 33 559 29 559 37"/>
</svg>
