<?xml version="1.0" encoding="UTF-8"?>
<svg xmlns="http://www.w3.org/2000/svg" width="191" height="345">
   <defs>
      <style type="text/css">
    @namespace "http://www.w3.org/2000/svg";
    .line                 {fill: none; stroke: #332900; stroke-width: 1;}
    .bold-line            {stroke: #141000; shape-rendering: crispEdges; stroke-width: 2;}
    .thin-line            {stroke: #1F1800; shape-rendering: crispEdges}
    .filled               {fill: #332900; stroke: none;}
    text.terminal         {font-family: Verdana, Sans-serif;
                            font-size: 12px;
                            fill: #141000;
                            font-weight: bold;
                          }
    text.nonterminal      {font-family: Verdana, Sans-serif;
                            font-size: 12px;
                            fill: #1A1400;
                            font-weight: normal;
                          }
    text.regexp           {font-family: Verdana, Sans-serif;
                            font-size: 12px;
                            fill: #1F1800;
                            font-weight: normal;
                          }
    rect, circle, polygon {fill: #332900; stroke: #332900;}
    rect.terminal         {fill: #FFDB4D; stroke: #332900; stroke-width: 1;}
    rect.nonterminal      {fill: #FFEC9E; stroke: #332900; stroke-width: 1;}
    rect.text             {fill: none; stroke: none;}
    polygon.regexp        {fill: #FFF4C7; stroke: #332900; stroke-width: 1;}
  </style>
   </defs>
   <polygon points="9 17 1 13 1 21"/>
   <polygon points="17 17 9 13 9 21"/>
   <a xmlns:xlink="http://www.w3.org/1999/xlink"
       xlink:href="#IDENTIFIER"
       xlink:title="IDENTIFIER">
      <rect x="51" y="3" width="92" height="32"/>
      <rect x="49" y="1" width="92" height="32" class="nonterminal"/>
      <text class="nonterminal" x="59" y="21">IDENTIFIER</text>
   </a>
   <rect x="51" y="47" width="44" height="32" rx="10"/>
   <rect x="49"
          y="45"
          width="44"
          height="32"
          class="terminal"
          rx="10"/>
   <text class="terminal" x="59" y="65">and</text>
   <rect x="51" y="91" width="34" height="32" rx="10"/>
   <rect x="49"
          y="89"
          width="34"
          height="32"
          class="terminal"
          rx="10"/>
   <text class="terminal" x="59" y="109">or</text>
   <rect x="51" y="135" width="34" height="32" rx="10"/>
   <rect x="49"
          y="133"
          width="34"
          height="32"
          class="terminal"
          rx="10"/>
   <text class="terminal" x="59" y="153">iff</text>
   <rect x="51" y="179" width="68" height="32" rx="10"/>
   <rect x="49"
          y="177"
          width="68"
          height="32"
          class="terminal"
          rx="10"/>
   <text class="terminal" x="59" y="197">implies</text>
   <rect x="51" y="223" width="42" height="32" rx="10"/>
   <rect x="49"
          y="221"
          width="42"
          height="32"
          class="terminal"
          rx="10"/>
   <text class="terminal" x="59" y="241">Set</text>
   <rect x="51" y="267" width="44" height="32" rx="10"/>
   <rect x="49"
          y="265"
          width="44"
          height="32"
          class="terminal"
          rx="10"/>
   <text class="terminal" x="59" y="285">List</text>
   <rect x="51" y="311" width="48" height="32" rx="10"/>
   <rect x="49"
          y="309"
          width="48"
          height="32"
          class="terminal"
          rx="10"/>
   <text class="terminal" x="59" y="329">Map</text>
   <path class="line"
          d="m17 17 h2 m20 0 h10 m92 0 h10 m-132 0 h20 m112 0 h20 m-152 0 q10 0 10 10 m132 0 q0 -10 10 -10 m-142 10 v24 m132 0 v-24 m-132 24 q0 10 10 10 m112 0 q10 0 10 -10 m-122 10 h10 m44 0 h10 m0 0 h48 m-122 -10 v20 m132 0 v-20 m-132 20 v24 m132 0 v-24 m-132 24 q0 10 10 10 m112 0 q10 0 10 -10 m-122 10 h10 m34 0 h10 m0 0 h58 m-122 -10 v20 m132 0 v-20 m-132 20 v24 m132 0 v-24 m-132 24 q0 10 10 10 m112 0 q10 0 10 -10 m-122 10 h10 m34 0 h10 m0 0 h58 m-122 -10 v20 m132 0 v-20 m-132 20 v24 m132 0 v-24 m-132 24 q0 10 10 10 m112 0 q10 0 10 -10 m-122 10 h10 m68 0 h10 m0 0 h24 m-122 -10 v20 m132 0 v-20 m-132 20 v24 m132 0 v-24 m-132 24 q0 10 10 10 m112 0 q10 0 10 -10 m-122 10 h10 m42 0 h10 m0 0 h50 m-122 -10 v20 m132 0 v-20 m-132 20 v24 m132 0 v-24 m-132 24 q0 10 10 10 m112 0 q10 0 10 -10 m-122 10 h10 m44 0 h10 m0 0 h48 m-122 -10 v20 m132 0 v-20 m-132 20 v24 m132 0 v-24 m-132 24 q0 10 10 10 m112 0 q10 0 10 -10 m-122 10 h10 m48 0 h10 m0 0 h44 m23 -308 h-3"/>
   <polygon points="181 17 189 13 189 21"/>
   <polygon points="181 17 173 13 173 21"/>
</svg>
