<?xml version="1.0" encoding="UTF-8"?>
<svg xmlns="http://www.w3.org/2000/svg" width="973" height="347">
   <defs>
      <style type="text/css">
    @namespace "http://www.w3.org/2000/svg";
    .line                 {fill: none; stroke: #332900; stroke-width: 1;}
    .bold-line            {stroke: #141000; shape-rendering: crispEdges; stroke-width: 2;}
    .thin-line            {stroke: #1F1800; shape-rendering: crispEdges}
    .filled               {fill: #332900; stroke: none;}
    text.terminal         {font-family: Verdana, Sans-serif;
                            font-size: 12px;
                            fill: #141000;
                            font-weight: bold;
                          }
    text.nonterminal      {font-family: Verdana, Sans-serif;
                            font-size: 12px;
                            fill: #1A1400;
                            font-weight: normal;
                          }
    text.regexp           {font-family: Verdana, Sans-serif;
                            font-size: 12px;
                            fill: #1F1800;
                            font-weight: normal;
                          }
    rect, circle, polygon {fill: #332900; stroke: #332900;}
    rect.terminal         {fill: #FFDB4D; stroke: #332900; stroke-width: 1;}
    rect.nonterminal      {fill: #FFEC9E; stroke: #332900; stroke-width: 1;}
    rect.text             {fill: none; stroke: none;}
    polygon.regexp        {fill: #FFF4C7; stroke: #332900; stroke-width: 1;}
  </style>
   </defs>
   <polygon points="9 61 1 57 1 65"/>
   <polygon points="17 61 9 57 9 65"/>
   <a xmlns:xlink="http://www.w3.org/1999/xlink"
       xlink:href="#qualifier"
       xlink:title="qualifier">
      <rect x="31" y="47" width="70" height="32"/>
      <rect x="29" y="45" width="70" height="32" class="nonterminal"/>
      <text class="nonterminal" x="39" y="65">qualifier</text>
   </a>
   <a xmlns:xlink="http://www.w3.org/1999/xlink"
       xlink:href="#normalCallName"
       xlink:title="normalCallName">
      <rect x="121" y="47" width="124" height="32"/>
      <rect x="119" y="45" width="124" height="32" class="nonterminal"/>
      <text class="nonterminal" x="129" y="65">normalCallName</text>
   </a>
   <rect x="285" y="47" width="26" height="32" rx="10"/>
   <rect x="283"
          y="45"
          width="26"
          height="32"
          class="terminal"
          rx="10"/>
   <text class="terminal" x="293" y="65">(</text>
   <a xmlns:xlink="http://www.w3.org/1999/xlink"
       xlink:href="#IDENTIFIER"
       xlink:title="IDENTIFIER">
      <rect x="391" y="47" width="92" height="32"/>
      <rect x="389" y="45" width="92" height="32" class="nonterminal"/>
      <text class="nonterminal" x="399" y="65">IDENTIFIER</text>
   </a>
   <rect x="391" y="3" width="24" height="32" rx="10"/>
   <rect x="389"
          y="1"
          width="24"
          height="32"
          class="terminal"
          rx="10"/>
   <text class="terminal" x="399" y="21">,</text>
   <rect x="543" y="47" width="26" height="32" rx="10"/>
   <rect x="541"
          y="45"
          width="26"
          height="32"
          class="terminal"
          rx="10"/>
   <text class="terminal" x="551" y="65">)</text>
   <rect x="609" y="79" width="24" height="32" rx="10"/>
   <rect x="607"
          y="77"
          width="24"
          height="32"
          class="terminal"
          rx="10"/>
   <text class="terminal" x="617" y="97">:</text>
   <a xmlns:xlink="http://www.w3.org/1999/xlink"
       xlink:href="#type"
       xlink:title="type">
      <rect x="653" y="79" width="48" height="32"/>
      <rect x="651" y="77" width="48" height="32" class="nonterminal"/>
      <text class="nonterminal" x="661" y="97">type</text>
   </a>
   <a xmlns:xlink="http://www.w3.org/1999/xlink"
       xlink:href="#IDENTIFIER"
       xlink:title="IDENTIFIER">
      <rect x="371" y="167" width="92" height="32"/>
      <rect x="369" y="165" width="92" height="32" class="nonterminal"/>
      <text class="nonterminal" x="379" y="185">IDENTIFIER</text>
   </a>
   <rect x="483" y="167" width="24" height="32" rx="10"/>
   <rect x="481"
          y="165"
          width="24"
          height="32"
          class="terminal"
          rx="10"/>
   <text class="terminal" x="491" y="185">:</text>
   <a xmlns:xlink="http://www.w3.org/1999/xlink"
       xlink:href="#type"
       xlink:title="type">
      <rect x="527" y="167" width="48" height="32"/>
      <rect x="525" y="165" width="48" height="32" class="nonterminal"/>
      <text class="nonterminal" x="535" y="185">type</text>
   </a>
   <rect x="371" y="123" width="24" height="32" rx="10"/>
   <rect x="369"
          y="121"
          width="24"
          height="32"
          class="terminal"
          rx="10"/>
   <text class="terminal" x="379" y="141">,</text>
   <rect x="615" y="167" width="26" height="32" rx="10"/>
   <rect x="613"
          y="165"
          width="26"
          height="32"
          class="terminal"
          rx="10"/>
   <text class="terminal" x="623" y="185">)</text>
   <rect x="661" y="167" width="24" height="32" rx="10"/>
   <rect x="659"
          y="165"
          width="24"
          height="32"
          class="terminal"
          rx="10"/>
   <text class="terminal" x="669" y="185">:</text>
   <a xmlns:xlink="http://www.w3.org/1999/xlink"
       xlink:href="#type"
       xlink:title="type">
      <rect x="705" y="167" width="48" height="32"/>
      <rect x="703" y="165" width="48" height="32" class="nonterminal"/>
      <text class="nonterminal" x="713" y="185">type</text>
   </a>
   <rect x="285" y="211" width="24" height="32" rx="10"/>
   <rect x="283"
          y="209"
          width="24"
          height="32"
          class="terminal"
          rx="10"/>
   <text class="terminal" x="293" y="229">:</text>
   <a xmlns:xlink="http://www.w3.org/1999/xlink"
       xlink:href="#type"
       xlink:title="type">
      <rect x="329" y="211" width="48" height="32"/>
      <rect x="327" y="209" width="48" height="32" class="nonterminal"/>
      <text class="nonterminal" x="337" y="229">type</text>
   </a>
   <rect x="833" y="79" width="30" height="32" rx="10"/>
   <rect x="831"
          y="77"
          width="30"
          height="32"
          class="terminal"
          rx="10"/>
   <text class="terminal" x="841" y="97">=</text>
   <a xmlns:xlink="http://www.w3.org/1999/xlink"
       xlink:href="#expr"
       xlink:title="expr">
      <rect x="883" y="79" width="48" height="32"/>
      <rect x="881" y="77" width="48" height="32" class="nonterminal"/>
      <text class="nonterminal" x="891" y="97">expr</text>
   </a>
   <rect x="901" y="313" width="24" height="32" rx="10"/>
   <rect x="899"
          y="311"
          width="24"
          height="32"
          class="terminal"
          rx="10"/>
   <text class="terminal" x="909" y="331">;</text>
   <path class="line"
          d="m17 61 h2 m0 0 h10 m70 0 h10 m0 0 h10 m124 0 h10 m20 0 h10 m26 0 h10 m60 0 h10 m92 0 h10 m-132 0 l20 0 m-1 0 q-9 0 -9 -10 l0 -24 q0 -10 10 -10 m112 44 l20 0 m-20 0 q10 0 10 -10 l0 -24 q0 -10 -10 -10 m-112 0 h10 m24 0 h10 m0 0 h68 m-152 44 h20 m152 0 h20 m-192 0 q10 0 10 10 m172 0 q0 -10 10 -10 m-182 10 v14 m172 0 v-14 m-172 14 q0 10 10 10 m152 0 q10 0 10 -10 m-162 10 h10 m0 0 h142 m20 -34 h10 m26 0 h10 m20 0 h10 m0 0 h102 m-132 0 h20 m112 0 h20 m-152 0 q10 0 10 10 m132 0 q0 -10 10 -10 m-142 10 v12 m132 0 v-12 m-132 12 q0 10 10 10 m112 0 q10 0 10 -10 m-122 10 h10 m24 0 h10 m0 0 h10 m48 0 h10 m20 -32 h32 m-442 0 h20 m422 0 h20 m-462 0 q10 0 10 10 m442 0 q0 -10 10 -10 m-452 10 v100 m442 0 v-100 m-442 100 q0 10 10 10 m422 0 q10 0 10 -10 m-412 10 h10 m92 0 h10 m0 0 h10 m24 0 h10 m0 0 h10 m48 0 h10 m-244 0 l20 0 m-1 0 q-9 0 -9 -10 l0 -24 q0 -10 10 -10 m224 44 l20 0 m-20 0 q10 0 10 -10 l0 -24 q0 -10 -10 -10 m-224 0 h10 m24 0 h10 m0 0 h180 m20 44 h10 m26 0 h10 m0 0 h10 m24 0 h10 m0 0 h10 m48 0 h10 m-508 -120 h20 m508 0 h20 m-548 0 q10 0 10 10 m528 0 q0 -10 10 -10 m-538 10 v144 m528 0 v-144 m-528 144 q0 10 10 10 m508 0 q10 0 10 -10 m-518 10 h10 m24 0 h10 m0 0 h10 m48 0 h10 m0 0 h396 m-518 -10 v20 m528 0 v-20 m-528 20 v14 m528 0 v-14 m-528 14 q0 10 10 10 m508 0 q10 0 10 -10 m-518 10 h10 m0 0 h498 m40 -198 h10 m0 0 h108 m-138 0 h20 m118 0 h20 m-158 0 q10 0 10 10 m138 0 q0 -10 10 -10 m-148 10 v12 m138 0 v-12 m-138 12 q0 10 10 10 m118 0 q10 0 10 -10 m-128 10 h10 m30 0 h10 m0 0 h10 m48 0 h10 m22 -32 l2 0 m2 0 l2 0 m2 0 l2 0 m-114 234 l2 0 m2 0 l2 0 m2 0 l2 0 m22 0 h10 m0 0 h34 m-64 0 h20 m44 0 h20 m-84 0 q10 0 10 10 m64 0 q0 -10 10 -10 m-74 10 v12 m64 0 v-12 m-64 12 q0 10 10 10 m44 0 q10 0 10 -10 m-54 10 h10 m24 0 h10 m23 -32 h-3"/>
   <polygon points="963 295 971 291 971 299"/>
   <polygon points="963 295 955 291 955 299"/>
</svg>
