<?xml version="1.0" encoding="UTF-8"?>
<svg xmlns="http://www.w3.org/2000/svg" width="291" height="213">
   <defs>
      <style type="text/css">
    @namespace "http://www.w3.org/2000/svg";
    .line                 {fill: none; stroke: #332900; stroke-width: 1;}
    .bold-line            {stroke: #141000; shape-rendering: crispEdges; stroke-width: 2;}
    .thin-line            {stroke: #1F1800; shape-rendering: crispEdges}
    .filled               {fill: #332900; stroke: none;}
    text.terminal         {font-family: Verdana, Sans-serif;
                            font-size: 12px;
                            fill: #141000;
                            font-weight: bold;
                          }
    text.nonterminal      {font-family: Verdana, Sans-serif;
                            font-size: 12px;
                            fill: #1A1400;
                            font-weight: normal;
                          }
    text.regexp           {font-family: Verdana, Sans-serif;
                            font-size: 12px;
                            fill: #1F1800;
                            font-weight: normal;
                          }
    rect, circle, polygon {fill: #332900; stroke: #332900;}
    rect.terminal         {fill: #FFDB4D; stroke: #332900; stroke-width: 1;}
    rect.nonterminal      {fill: #FFEC9E; stroke: #332900; stroke-width: 1;}
    rect.text             {fill: none; stroke: none;}
    polygon.regexp        {fill: #FFF4C7; stroke: #332900; stroke-width: 1;}
  </style>
   </defs>
   <polygon points="9 17 1 13 1 21"/>
   <polygon points="17 17 9 13 9 21"/>
   <rect x="71" y="35" width="50" height="32" rx="10"/>
   <rect x="69"
          y="33"
          width="50"
          height="32"
          class="terminal"
          rx="10"/>
   <text class="terminal" x="79" y="53">pure</text>
   <rect x="181" y="3" width="40" height="32" rx="10"/>
   <rect x="179"
          y="1"
          width="40"
          height="32"
          class="terminal"
          rx="10"/>
   <text class="terminal" x="189" y="21">val</text>
   <rect x="181" y="47" width="42" height="32" rx="10"/>
   <rect x="179"
          y="45"
          width="42"
          height="32"
          class="terminal"
          rx="10"/>
   <text class="terminal" x="189" y="65">def</text>
   <rect x="51" y="91" width="60" height="32" rx="10"/>
   <rect x="49"
          y="89"
          width="60"
          height="32"
          class="terminal"
          rx="10"/>
   <text class="terminal" x="59" y="109">action</text>
   <rect x="51" y="135" width="42" height="32" rx="10"/>
   <rect x="49"
          y="133"
          width="42"
          height="32"
          class="terminal"
          rx="10"/>
   <text class="terminal" x="59" y="153">run</text>
   <rect x="51" y="179" width="80" height="32" rx="10"/>
   <rect x="49"
          y="177"
          width="80"
          height="32"
          class="terminal"
          rx="10"/>
   <text class="terminal" x="59" y="197">temporal</text>
   <path class="line"
          d="m17 17 h2 m40 0 h10 m0 0 h60 m-90 0 h20 m70 0 h20 m-110 0 q10 0 10 10 m90 0 q0 -10 10 -10 m-100 10 v12 m90 0 v-12 m-90 12 q0 10 10 10 m70 0 q10 0 10 -10 m-80 10 h10 m50 0 h10 m40 -32 h10 m40 0 h10 m0 0 h2 m-82 0 h20 m62 0 h20 m-102 0 q10 0 10 10 m82 0 q0 -10 10 -10 m-92 10 v24 m82 0 v-24 m-82 24 q0 10 10 10 m62 0 q10 0 10 -10 m-72 10 h10 m42 0 h10 m-212 -44 h20 m212 0 h20 m-252 0 q10 0 10 10 m232 0 q0 -10 10 -10 m-242 10 v68 m232 0 v-68 m-232 68 q0 10 10 10 m212 0 q10 0 10 -10 m-222 10 h10 m60 0 h10 m0 0 h132 m-222 -10 v20 m232 0 v-20 m-232 20 v24 m232 0 v-24 m-232 24 q0 10 10 10 m212 0 q10 0 10 -10 m-222 10 h10 m42 0 h10 m0 0 h150 m-222 -10 v20 m232 0 v-20 m-232 20 v24 m232 0 v-24 m-232 24 q0 10 10 10 m212 0 q10 0 10 -10 m-222 10 h10 m80 0 h10 m0 0 h112 m23 -176 h-3"/>
   <polygon points="281 17 289 13 289 21"/>
   <polygon points="281 17 273 13 273 21"/>
</svg>
