<?xml version="1.0" encoding="UTF-8"?>
<svg xmlns="http://www.w3.org/2000/svg" width="889" height="221">
   <defs>
      <style type="text/css">
    @namespace "http://www.w3.org/2000/svg";
    .line                 {fill: none; stroke: #332900; stroke-width: 1;}
    .bold-line            {stroke: #141000; shape-rendering: crispEdges; stroke-width: 2;}
    .thin-line            {stroke: #1F1800; shape-rendering: crispEdges}
    .filled               {fill: #332900; stroke: none;}
    text.terminal         {font-family: Verdana, Sans-serif;
                            font-size: 12px;
                            fill: #141000;
                            font-weight: bold;
                          }
    text.nonterminal      {font-family: Verdana, Sans-serif;
                            font-size: 12px;
                            fill: #1A1400;
                            font-weight: normal;
                          }
    text.regexp           {font-family: Verdana, Sans-serif;
                            font-size: 12px;
                            fill: #1F1800;
                            font-weight: normal;
                          }
    rect, circle, polygon {fill: #332900; stroke: #332900;}
    rect.terminal         {fill: #FFDB4D; stroke: #332900; stroke-width: 1;}
    rect.nonterminal      {fill: #FFEC9E; stroke: #332900; stroke-width: 1;}
    rect.text             {fill: none; stroke: none;}
    polygon.regexp        {fill: #FFF4C7; stroke: #332900; stroke-width: 1;}
  </style>
   </defs>
   <polygon points="9 33 1 29 1 37"/>
   <polygon points="17 33 9 29 9 37"/>
   <a xmlns:xlink="http://www.w3.org/1999/xlink"
       xlink:href="#IDENTIFIER"
       xlink:title="IDENTIFIER">
      <rect x="91" y="19" width="92" height="32"/>
      <rect x="89" y="17" width="92" height="32" class="nonterminal"/>
      <text class="nonterminal" x="99" y="37">IDENTIFIER</text>
   </a>
   <rect x="203" y="19" width="24" height="32" rx="10"/>
   <rect x="201"
          y="17"
          width="24"
          height="32"
          class="terminal"
          rx="10"/>
   <text class="terminal" x="211" y="37">:</text>
   <a xmlns:xlink="http://www.w3.org/1999/xlink"
       xlink:href="#type"
       xlink:title="type">
      <rect x="247" y="19" width="48" height="32"/>
      <rect x="245" y="17" width="48" height="32" class="nonterminal"/>
      <text class="nonterminal" x="255" y="37">type</text>
   </a>
   <rect x="315" y="19" width="24" height="32" rx="10"/>
   <rect x="313"
          y="17"
          width="24"
          height="32"
          class="terminal"
          rx="10"/>
   <text class="terminal" x="323" y="37">,</text>
   <a xmlns:xlink="http://www.w3.org/1999/xlink"
       xlink:href="#IDENTIFIER"
       xlink:title="IDENTIFIER">
      <rect x="419" y="51" width="92" height="32"/>
      <rect x="417" y="49" width="92" height="32" class="nonterminal"/>
      <text class="nonterminal" x="427" y="69">IDENTIFIER</text>
   </a>
   <rect x="531" y="51" width="24" height="32" rx="10"/>
   <rect x="529"
          y="49"
          width="24"
          height="32"
          class="terminal"
          rx="10"/>
   <text class="terminal" x="539" y="69">:</text>
   <a xmlns:xlink="http://www.w3.org/1999/xlink"
       xlink:href="#type"
       xlink:title="type">
      <rect x="575" y="51" width="48" height="32"/>
      <rect x="573" y="49" width="48" height="32" class="nonterminal"/>
      <text class="nonterminal" x="583" y="69">type</text>
   </a>
   <rect x="663" y="83" width="24" height="32" rx="10"/>
   <rect x="661"
          y="81"
          width="24"
          height="32"
          class="terminal"
          rx="10"/>
   <text class="terminal" x="671" y="101">,</text>
   <rect x="663" y="127" width="26" height="32" rx="10"/>
   <rect x="661"
          y="125"
          width="26"
          height="32"
          class="terminal"
          rx="10"/>
   <text class="terminal" x="671" y="145">|</text>
   <a xmlns:xlink="http://www.w3.org/1999/xlink"
       xlink:href="#IDENTIFIER"
       xlink:title="IDENTIFIER">
      <rect x="709" y="127" width="92" height="32"/>
      <rect x="707" y="125" width="92" height="32" class="nonterminal"/>
      <text class="nonterminal" x="717" y="145">IDENTIFIER</text>
   </a>
   <rect x="51" y="171" width="26" height="32" rx="10"/>
   <rect x="49"
          y="169"
          width="26"
          height="32"
          class="terminal"
          rx="10"/>
   <text class="terminal" x="59" y="189">|</text>
   <a xmlns:xlink="http://www.w3.org/1999/xlink"
       xlink:href="#IDENTIFIER"
       xlink:title="IDENTIFIER">
      <rect x="97" y="171" width="92" height="32"/>
      <rect x="95" y="169" width="92" height="32" class="nonterminal"/>
      <text class="nonterminal" x="105" y="189">IDENTIFIER</text>
   </a>
   <path class="line"
          d="m17 33 h2 m60 0 h10 m92 0 h10 m0 0 h10 m24 0 h10 m0 0 h10 m48 0 h10 m0 0 h10 m24 0 h10 m-288 0 l20 0 m-1 0 q-9 0 -9 -10 l0 -12 q0 -10 10 -10 m268 32 l20 0 m-20 0 q10 0 10 -10 l0 -12 q0 -10 -10 -10 m-268 0 h10 m0 0 h258 m-308 32 h20 m308 0 h20 m-348 0 q10 0 10 10 m328 0 q0 -10 10 -10 m-338 10 v14 m328 0 v-14 m-328 14 q0 10 10 10 m308 0 q10 0 10 -10 m-318 10 h10 m0 0 h298 m40 -34 h10 m0 0 h412 m-442 0 h20 m422 0 h20 m-462 0 q10 0 10 10 m442 0 q0 -10 10 -10 m-452 10 v12 m442 0 v-12 m-442 12 q0 10 10 10 m422 0 q10 0 10 -10 m-432 10 h10 m92 0 h10 m0 0 h10 m24 0 h10 m0 0 h10 m48 0 h10 m20 0 h10 m0 0 h148 m-178 0 h20 m158 0 h20 m-198 0 q10 0 10 10 m178 0 q0 -10 10 -10 m-188 10 v12 m178 0 v-12 m-178 12 q0 10 10 10 m158 0 q10 0 10 -10 m-168 10 h10 m24 0 h10 m0 0 h114 m-168 -10 v20 m178 0 v-20 m-178 20 v24 m178 0 v-24 m-178 24 q0 10 10 10 m158 0 q10 0 10 -10 m-168 10 h10 m26 0 h10 m0 0 h10 m92 0 h10 m-790 -108 h20 m810 0 h20 m-850 0 q10 0 10 10 m830 0 q0 -10 10 -10 m-840 10 v132 m830 0 v-132 m-830 132 q0 10 10 10 m810 0 q10 0 10 -10 m-820 10 h10 m26 0 h10 m0 0 h10 m92 0 h10 m0 0 h652 m-820 -10 v20 m830 0 v-20 m-830 20 v14 m830 0 v-14 m-830 14 q0 10 10 10 m810 0 q10 0 10 -10 m-820 10 h10 m0 0 h800 m23 -186 h-3"/>
   <polygon points="879 33 887 29 887 37"/>
   <polygon points="879 33 871 29 871 37"/>
</svg>
