<?xml version="1.0" encoding="UTF-8"?>
<svg xmlns="http://www.w3.org/2000/svg" width="571" height="695">
   <defs>
      <style type="text/css">
    @namespace "http://www.w3.org/2000/svg";
    .line                 {fill: none; stroke: #332900; stroke-width: 1;}
    .bold-line            {stroke: #141000; shape-rendering: crispEdges; stroke-width: 2;}
    .thin-line            {stroke: #1F1800; shape-rendering: crispEdges}
    .filled               {fill: #332900; stroke: none;}
    text.terminal         {font-family: Verdana, Sans-serif;
                            font-size: 12px;
                            fill: #141000;
                            font-weight: bold;
                          }
    text.nonterminal      {font-family: Verdana, Sans-serif;
                            font-size: 12px;
                            fill: #1A1400;
                            font-weight: normal;
                          }
    text.regexp           {font-family: Verdana, Sans-serif;
                            font-size: 12px;
                            fill: #1F1800;
                            font-weight: normal;
                          }
    rect, circle, polygon {fill: #332900; stroke: #332900;}
    rect.terminal         {fill: #FFDB4D; stroke: #332900; stroke-width: 1;}
    rect.nonterminal      {fill: #FFEC9E; stroke: #332900; stroke-width: 1;}
    rect.text             {fill: none; stroke: none;}
    polygon.regexp        {fill: #FFF4C7; stroke: #332900; stroke-width: 1;}
  </style>
   </defs>
   <polygon points="9 17 1 13 1 21"/>
   <polygon points="17 17 9 13 9 21"/>
   <a xmlns:xlink="http://www.w3.org/1999/xlink"
       xlink:href="#type"
       xlink:title="type">
      <rect x="51" y="3" width="48" height="32"/>
      <rect x="49" y="1" width="48" height="32" class="nonterminal"/>
      <text class="nonterminal" x="59" y="21">type</text>
   </a>
   <rect x="139" y="3" width="36" height="32" rx="10"/>
   <rect x="137"
          y="1"
          width="36"
          height="32"
          class="terminal"
          rx="10"/>
   <text class="terminal" x="147" y="21">-&gt;</text>
   <rect x="139" y="47" width="40" height="32" rx="10"/>
   <rect x="137"
          y="45"
          width="40"
          height="32"
          class="terminal"
          rx="10"/>
   <text class="terminal" x="147" y="65">=&gt;</text>
   <a xmlns:xlink="http://www.w3.org/1999/xlink"
       xlink:href="#type"
       xlink:title="type">
      <rect x="219" y="3" width="48" height="32"/>
      <rect x="217" y="1" width="48" height="32" class="nonterminal"/>
      <text class="nonterminal" x="227" y="21">type</text>
   </a>
   <rect x="51" y="135" width="26" height="32" rx="10"/>
   <rect x="49"
          y="133"
          width="26"
          height="32"
          class="terminal"
          rx="10"/>
   <text class="terminal" x="59" y="153">(</text>
   <a xmlns:xlink="http://www.w3.org/1999/xlink"
       xlink:href="#type"
       xlink:title="type">
      <rect x="157" y="135" width="48" height="32"/>
      <rect x="155" y="133" width="48" height="32" class="nonterminal"/>
      <text class="nonterminal" x="165" y="153">type</text>
   </a>
   <rect x="157" y="91" width="24" height="32" rx="10"/>
   <rect x="155"
          y="89"
          width="24"
          height="32"
          class="terminal"
          rx="10"/>
   <text class="terminal" x="165" y="109">,</text>
   <rect x="285" y="167" width="24" height="32" rx="10"/>
   <rect x="283"
          y="165"
          width="24"
          height="32"
          class="terminal"
          rx="10"/>
   <text class="terminal" x="293" y="185">,</text>
   <rect x="349" y="135" width="26" height="32" rx="10"/>
   <rect x="347"
          y="133"
          width="26"
          height="32"
          class="terminal"
          rx="10"/>
   <text class="terminal" x="357" y="153">)</text>
   <rect x="395" y="135" width="40" height="32" rx="10"/>
   <rect x="393"
          y="133"
          width="40"
          height="32"
          class="terminal"
          rx="10"/>
   <text class="terminal" x="403" y="153">=&gt;</text>
   <a xmlns:xlink="http://www.w3.org/1999/xlink"
       xlink:href="#type"
       xlink:title="type">
      <rect x="455" y="135" width="48" height="32"/>
      <rect x="453" y="133" width="48" height="32" class="nonterminal"/>
      <text class="nonterminal" x="463" y="153">type</text>
   </a>
   <a xmlns:xlink="http://www.w3.org/1999/xlink"
       xlink:href="#type"
       xlink:title="type">
      <rect x="117" y="233" width="48" height="32"/>
      <rect x="115" y="231" width="48" height="32" class="nonterminal"/>
      <text class="nonterminal" x="125" y="251">type</text>
   </a>
   <rect x="225" y="233" width="24" height="32" rx="10"/>
   <rect x="223"
          y="231"
          width="24"
          height="32"
          class="terminal"
          rx="10"/>
   <text class="terminal" x="233" y="251">,</text>
   <a xmlns:xlink="http://www.w3.org/1999/xlink"
       xlink:href="#type"
       xlink:title="type">
      <rect x="269" y="233" width="48" height="32"/>
      <rect x="267" y="231" width="48" height="32" class="nonterminal"/>
      <text class="nonterminal" x="277" y="251">type</text>
   </a>
   <rect x="377" y="265" width="24" height="32" rx="10"/>
   <rect x="375"
          y="263"
          width="24"
          height="32"
          class="terminal"
          rx="10"/>
   <text class="terminal" x="385" y="283">,</text>
   <rect x="461" y="233" width="26" height="32" rx="10"/>
   <rect x="459"
          y="231"
          width="26"
          height="32"
          class="terminal"
          rx="10"/>
   <text class="terminal" x="469" y="251">)</text>
   <rect x="71" y="331" width="42" height="32" rx="10"/>
   <rect x="69"
          y="329"
          width="42"
          height="32"
          class="terminal"
          rx="10"/>
   <text class="terminal" x="79" y="349">Set</text>
   <rect x="71" y="375" width="44" height="32" rx="10"/>
   <rect x="69"
          y="373"
          width="44"
          height="32"
          class="terminal"
          rx="10"/>
   <text class="terminal" x="79" y="393">List</text>
   <rect x="155" y="331" width="26" height="32" rx="10"/>
   <rect x="153"
          y="329"
          width="26"
          height="32"
          class="terminal"
          rx="10"/>
   <text class="terminal" x="163" y="349">[</text>
   <a xmlns:xlink="http://www.w3.org/1999/xlink"
       xlink:href="#type"
       xlink:title="type">
      <rect x="201" y="331" width="48" height="32"/>
      <rect x="199" y="329" width="48" height="32" class="nonterminal"/>
      <text class="nonterminal" x="209" y="349">type</text>
   </a>
   <rect x="269" y="331" width="26" height="32" rx="10"/>
   <rect x="267"
          y="329"
          width="26"
          height="32"
          class="terminal"
          rx="10"/>
   <text class="terminal" x="277" y="349">]</text>
   <rect x="51" y="419" width="28" height="32" rx="10"/>
   <rect x="49"
          y="417"
          width="28"
          height="32"
          class="terminal"
          rx="10"/>
   <text class="terminal" x="59" y="437">{</text>
   <a xmlns:xlink="http://www.w3.org/1999/xlink"
       xlink:href="#row"
       xlink:title="row">
      <rect x="99" y="419" width="42" height="32"/>
      <rect x="97" y="417" width="42" height="32" class="nonterminal"/>
      <text class="nonterminal" x="107" y="437">row</text>
   </a>
   <rect x="161" y="419" width="28" height="32" rx="10"/>
   <rect x="159"
          y="417"
          width="28"
          height="32"
          class="terminal"
          rx="10"/>
   <text class="terminal" x="169" y="437">}</text>
   <a xmlns:xlink="http://www.w3.org/1999/xlink"
       xlink:href="#typeUnionRecOne"
       xlink:title="typeUnionRecOne">
      <rect x="71" y="485" width="132" height="32"/>
      <rect x="69" y="483" width="132" height="32" class="nonterminal"/>
      <text class="nonterminal" x="79" y="503">typeUnionRecOne</text>
   </a>
   <rect x="51" y="529" width="38" height="32" rx="10"/>
   <rect x="49"
          y="527"
          width="38"
          height="32"
          class="terminal"
          rx="10"/>
   <text class="terminal" x="59" y="547">int</text>
   <rect x="51" y="573" width="38" height="32" rx="10"/>
   <rect x="49"
          y="571"
          width="38"
          height="32"
          class="terminal"
          rx="10"/>
   <text class="terminal" x="59" y="591">str</text>
   <rect x="51" y="617" width="48" height="32" rx="10"/>
   <rect x="49"
          y="615"
          width="48"
          height="32"
          class="terminal"
          rx="10"/>
   <text class="terminal" x="59" y="635">bool</text>
   <a xmlns:xlink="http://www.w3.org/1999/xlink"
       xlink:href="#IDENTIFIER"
       xlink:title="IDENTIFIER">
      <rect x="51" y="661" width="92" height="32"/>
      <rect x="49" y="659" width="92" height="32" class="nonterminal"/>
      <text class="nonterminal" x="59" y="679">IDENTIFIER</text>
   </a>
   <path class="line"
          d="m17 17 h2 m20 0 h10 m48 0 h10 m20 0 h10 m36 0 h10 m0 0 h4 m-80 0 h20 m60 0 h20 m-100 0 q10 0 10 10 m80 0 q0 -10 10 -10 m-90 10 v24 m80 0 v-24 m-80 24 q0 10 10 10 m60 0 q10 0 10 -10 m-70 10 h10 m40 0 h10 m20 -44 h10 m48 0 h10 m0 0 h256 m-512 0 h20 m492 0 h20 m-532 0 q10 0 10 10 m512 0 q0 -10 10 -10 m-522 10 v112 m512 0 v-112 m-512 112 q0 10 10 10 m492 0 q10 0 10 -10 m-502 10 h10 m26 0 h10 m60 0 h10 m48 0 h10 m-88 0 l20 0 m-1 0 q-9 0 -9 -10 l0 -24 q0 -10 10 -10 m68 44 l20 0 m-20 0 q10 0 10 -10 l0 -24 q0 -10 -10 -10 m-68 0 h10 m24 0 h10 m0 0 h24 m-108 44 h20 m108 0 h20 m-148 0 q10 0 10 10 m128 0 q0 -10 10 -10 m-138 10 v14 m128 0 v-14 m-128 14 q0 10 10 10 m108 0 q10 0 10 -10 m-118 10 h10 m0 0 h98 m40 -34 h10 m0 0 h34 m-64 0 h20 m44 0 h20 m-84 0 q10 0 10 10 m64 0 q0 -10 10 -10 m-74 10 v12 m64 0 v-12 m-64 12 q0 10 10 10 m44 0 q10 0 10 -10 m-54 10 h10 m24 0 h10 m20 -32 h10 m26 0 h10 m0 0 h10 m40 0 h10 m0 0 h10 m48 0 h10 m-426 0 h20 m406 0 h20 m-446 0 q10 0 10 10 m426 0 q0 -10 10 -10 m-436 10 v78 m426 0 v-78 m-426 78 q0 10 10 10 m406 0 q10 0 10 -10 m-416 10 h10 m48 0 h10 m40 0 h10 m24 0 h10 m0 0 h10 m48 0 h10 m-132 0 l20 0 m-1 0 q-9 0 -9 -10 l0 -12 q0 -10 10 -10 m112 32 l20 0 m-20 0 q10 0 10 -10 l0 -12 q0 -10 -10 -10 m-112 0 h10 m0 0 h102 m40 32 h10 m0 0 h34 m-64 0 h20 m44 0 h20 m-84 0 q10 0 10 10 m64 0 q0 -10 10 -10 m-74 10 v12 m64 0 v-12 m-64 12 q0 10 10 10 m44 0 q10 0 10 -10 m-54 10 h10 m24 0 h10 m-236 -32 h20 m236 0 h20 m-276 0 q10 0 10 10 m256 0 q0 -10 10 -10 m-266 10 v46 m256 0 v-46 m-256 46 q0 10 10 10 m236 0 q10 0 10 -10 m-246 10 h10 m0 0 h226 m20 -66 h10 m26 0 h10 m0 0 h16 m-482 -108 v20 m512 0 v-20 m-512 20 v176 m512 0 v-176 m-512 176 q0 10 10 10 m492 0 q10 0 10 -10 m-482 10 h10 m42 0 h10 m0 0 h2 m-84 0 h20 m64 0 h20 m-104 0 q10 0 10 10 m84 0 q0 -10 10 -10 m-94 10 v24 m84 0 v-24 m-84 24 q0 10 10 10 m64 0 q10 0 10 -10 m-74 10 h10 m44 0 h10 m20 -44 h10 m26 0 h10 m0 0 h10 m48 0 h10 m0 0 h10 m26 0 h10 m0 0 h228 m-502 -10 v20 m512 0 v-20 m-512 20 v68 m512 0 v-68 m-512 68 q0 10 10 10 m492 0 q10 0 10 -10 m-502 10 h10 m28 0 h10 m0 0 h10 m42 0 h10 m0 0 h10 m28 0 h10 m0 0 h334 m-502 -10 v20 m512 0 v-20 m-512 20 v46 m512 0 v-46 m-512 46 q0 10 10 10 m492 0 q10 0 10 -10 m-482 10 h10 m132 0 h10 m-172 0 l20 0 m-1 0 q-9 0 -9 -10 l0 -12 q0 -10 10 -10 m152 32 l20 0 m-20 0 q10 0 10 -10 l0 -12 q0 -10 -10 -10 m-152 0 h10 m0 0 h142 m20 32 h300 m-502 -10 v20 m512 0 v-20 m-512 20 v24 m512 0 v-24 m-512 24 q0 10 10 10 m492 0 q10 0 10 -10 m-502 10 h10 m38 0 h10 m0 0 h434 m-502 -10 v20 m512 0 v-20 m-512 20 v24 m512 0 v-24 m-512 24 q0 10 10 10 m492 0 q10 0 10 -10 m-502 10 h10 m38 0 h10 m0 0 h434 m-502 -10 v20 m512 0 v-20 m-512 20 v24 m512 0 v-24 m-512 24 q0 10 10 10 m492 0 q10 0 10 -10 m-502 10 h10 m48 0 h10 m0 0 h424 m-502 -10 v20 m512 0 v-20 m-512 20 v24 m512 0 v-24 m-512 24 q0 10 10 10 m492 0 q10 0 10 -10 m-502 10 h10 m92 0 h10 m0 0 h380 m23 -658 h-3"/>
   <polygon points="561 17 569 13 569 21"/>
   <polygon points="561 17 553 13 553 21"/>
</svg>
