<?xml version="1.0" encoding="UTF-8"?>
<svg xmlns="http://www.w3.org/2000/svg" width="653" height="69">
   <defs>
      <style type="text/css">
    @namespace "http://www.w3.org/2000/svg";
    .line                 {fill: none; stroke: #332900; stroke-width: 1;}
    .bold-line            {stroke: #141000; shape-rendering: crispEdges; stroke-width: 2;}
    .thin-line            {stroke: #1F1800; shape-rendering: crispEdges}
    .filled               {fill: #332900; stroke: none;}
    text.terminal         {font-family: Verdana, Sans-serif;
                            font-size: 12px;
                            fill: #141000;
                            font-weight: bold;
                          }
    text.nonterminal      {font-family: Verdana, Sans-serif;
                            font-size: 12px;
                            fill: #1A1400;
                            font-weight: normal;
                          }
    text.regexp           {font-family: Verdana, Sans-serif;
                            font-size: 12px;
                            fill: #1F1800;
                            font-weight: normal;
                          }
    rect, circle, polygon {fill: #332900; stroke: #332900;}
    rect.terminal         {fill: #FFDB4D; stroke: #332900; stroke-width: 1;}
    rect.nonterminal      {fill: #FFEC9E; stroke: #332900; stroke-width: 1;}
    rect.text             {fill: none; stroke: none;}
    polygon.regexp        {fill: #FFF4C7; stroke: #332900; stroke-width: 1;}
  </style>
   </defs>
   <polygon points="9 17 1 13 1 21"/>
   <polygon points="17 17 9 13 9 21"/>
   <rect x="31" y="3" width="26" height="32" rx="10"/>
   <rect x="29"
          y="1"
          width="26"
          height="32"
          class="terminal"
          rx="10"/>
   <text class="terminal" x="39" y="21">|</text>
   <rect x="77" y="3" width="28" height="32" rx="10"/>
   <rect x="75"
          y="1"
          width="28"
          height="32"
          class="terminal"
          rx="10"/>
   <text class="terminal" x="85" y="21">{</text>
   <a xmlns:xlink="http://www.w3.org/1999/xlink"
       xlink:href="#IDENTIFIER"
       xlink:title="IDENTIFIER">
      <rect x="125" y="3" width="92" height="32"/>
      <rect x="123" y="1" width="92" height="32" class="nonterminal"/>
      <text class="nonterminal" x="133" y="21">IDENTIFIER</text>
   </a>
   <rect x="237" y="3" width="24" height="32" rx="10"/>
   <rect x="235"
          y="1"
          width="24"
          height="32"
          class="terminal"
          rx="10"/>
   <text class="terminal" x="245" y="21">:</text>
   <a xmlns:xlink="http://www.w3.org/1999/xlink"
       xlink:href="#STRING"
       xlink:title="STRING">
      <rect x="281" y="3" width="66" height="32"/>
      <rect x="279" y="1" width="66" height="32" class="nonterminal"/>
      <text class="nonterminal" x="289" y="21">STRING</text>
   </a>
   <rect x="387" y="35" width="24" height="32" rx="10"/>
   <rect x="385"
          y="33"
          width="24"
          height="32"
          class="terminal"
          rx="10"/>
   <text class="terminal" x="395" y="53">,</text>
   <a xmlns:xlink="http://www.w3.org/1999/xlink"
       xlink:href="#row"
       xlink:title="row">
      <rect x="431" y="35" width="42" height="32"/>
      <rect x="429" y="33" width="42" height="32" class="nonterminal"/>
      <text class="nonterminal" x="439" y="53">row</text>
   </a>
   <rect x="533" y="35" width="24" height="32" rx="10"/>
   <rect x="531"
          y="33"
          width="24"
          height="32"
          class="terminal"
          rx="10"/>
   <text class="terminal" x="541" y="53">,</text>
   <rect x="597" y="3" width="28" height="32" rx="10"/>
   <rect x="595"
          y="1"
          width="28"
          height="32"
          class="terminal"
          rx="10"/>
   <text class="terminal" x="605" y="21">}</text>
   <path class="line"
          d="m17 17 h2 m0 0 h10 m26 0 h10 m0 0 h10 m28 0 h10 m0 0 h10 m92 0 h10 m0 0 h10 m24 0 h10 m0 0 h10 m66 0 h10 m20 0 h10 m0 0 h96 m-126 0 h20 m106 0 h20 m-146 0 q10 0 10 10 m126 0 q0 -10 10 -10 m-136 10 v12 m126 0 v-12 m-126 12 q0 10 10 10 m106 0 q10 0 10 -10 m-116 10 h10 m24 0 h10 m0 0 h10 m42 0 h10 m40 -32 h10 m0 0 h34 m-64 0 h20 m44 0 h20 m-84 0 q10 0 10 10 m64 0 q0 -10 10 -10 m-74 10 v12 m64 0 v-12 m-64 12 q0 10 10 10 m44 0 q10 0 10 -10 m-54 10 h10 m24 0 h10 m20 -32 h10 m28 0 h10 m3 0 h-3"/>
   <polygon points="643 17 651 13 651 21"/>
   <polygon points="643 17 635 13 635 21"/>
</svg>
