<?xml version="1.0" encoding="UTF-8"?>
<svg xmlns="http://www.w3.org/2000/svg" width="419" height="377">
   <defs>
      <style type="text/css">
    @namespace "http://www.w3.org/2000/svg";
    .line                 {fill: none; stroke: #332900; stroke-width: 1;}
    .bold-line            {stroke: #141000; shape-rendering: crispEdges; stroke-width: 2;}
    .thin-line            {stroke: #1F1800; shape-rendering: crispEdges}
    .filled               {fill: #332900; stroke: none;}
    text.terminal         {font-family: Verdana, Sans-serif;
                            font-size: 12px;
                            fill: #141000;
                            font-weight: bold;
                          }
    text.nonterminal      {font-family: Verdana, Sans-serif;
                            font-size: 12px;
                            fill: #1A1400;
                            font-weight: normal;
                          }
    text.regexp           {font-family: Verdana, Sans-serif;
                            font-size: 12px;
                            fill: #1F1800;
                            font-weight: normal;
                          }
    rect, circle, polygon {fill: #332900; stroke: #332900;}
    rect.terminal         {fill: #FFDB4D; stroke: #332900; stroke-width: 1;}
    rect.nonterminal      {fill: #FFEC9E; stroke: #332900; stroke-width: 1;}
    rect.text             {fill: none; stroke: none;}
    polygon.regexp        {fill: #FFF4C7; stroke: #332900; stroke-width: 1;}
  </style>
   </defs>
   <polygon points="9 17 1 13 1 21"/>
   <polygon points="17 17 9 13 9 21"/>
   <rect x="71" y="3" width="56" height="32" rx="10"/>
   <rect x="69"
          y="1"
          width="56"
          height="32"
          class="terminal"
          rx="10"/>
   <text class="terminal" x="79" y="21">const</text>
   <rect x="71" y="47" width="42" height="32" rx="10"/>
   <rect x="69"
          y="45"
          width="42"
          height="32"
          class="terminal"
          rx="10"/>
   <text class="terminal" x="79" y="65">var</text>
   <a xmlns:xlink="http://www.w3.org/1999/xlink"
       xlink:href="#IDENTIFIER"
       xlink:title="IDENTIFIER">
      <rect x="167" y="3" width="92" height="32"/>
      <rect x="165" y="1" width="92" height="32" class="nonterminal"/>
      <text class="nonterminal" x="175" y="21">IDENTIFIER</text>
   </a>
   <rect x="279" y="3" width="24" height="32" rx="10"/>
   <rect x="277"
          y="1"
          width="24"
          height="32"
          class="terminal"
          rx="10"/>
   <text class="terminal" x="287" y="21">:</text>
   <a xmlns:xlink="http://www.w3.org/1999/xlink"
       xlink:href="#type"
       xlink:title="type">
      <rect x="323" y="3" width="48" height="32"/>
      <rect x="321" y="1" width="48" height="32" class="nonterminal"/>
      <text class="nonterminal" x="331" y="21">type</text>
   </a>
   <rect x="51" y="91" width="70" height="32" rx="10"/>
   <rect x="49"
          y="89"
          width="70"
          height="32"
          class="terminal"
          rx="10"/>
   <text class="terminal" x="59" y="109">assume</text>
   <a xmlns:xlink="http://www.w3.org/1999/xlink"
       xlink:href="#identOrHole"
       xlink:title="identOrHole">
      <rect x="141" y="91" width="94" height="32"/>
      <rect x="139" y="89" width="94" height="32" class="nonterminal"/>
      <text class="nonterminal" x="149" y="109">identOrHole</text>
   </a>
   <rect x="255" y="91" width="30" height="32" rx="10"/>
   <rect x="253"
          y="89"
          width="30"
          height="32"
          class="terminal"
          rx="10"/>
   <text class="terminal" x="263" y="109">=</text>
   <a xmlns:xlink="http://www.w3.org/1999/xlink"
       xlink:href="#expr"
       xlink:title="expr">
      <rect x="305" y="91" width="48" height="32"/>
      <rect x="303" y="89" width="48" height="32" class="nonterminal"/>
      <text class="nonterminal" x="313" y="109">expr</text>
   </a>
   <a xmlns:xlink="http://www.w3.org/1999/xlink"
       xlink:href="#operDef"
       xlink:title="operDef">
      <rect x="51" y="135" width="70" height="32"/>
      <rect x="49" y="133" width="70" height="32" class="nonterminal"/>
      <text class="nonterminal" x="59" y="153">operDef</text>
   </a>
   <a xmlns:xlink="http://www.w3.org/1999/xlink"
       xlink:href="#module"
       xlink:title="module">
      <rect x="51" y="179" width="66" height="32"/>
      <rect x="49" y="177" width="66" height="32" class="nonterminal"/>
      <text class="nonterminal" x="59" y="197">module</text>
   </a>
   <a xmlns:xlink="http://www.w3.org/1999/xlink"
       xlink:href="#instanceMod"
       xlink:title="instanceMod">
      <rect x="51" y="223" width="100" height="32"/>
      <rect x="49" y="221" width="100" height="32" class="nonterminal"/>
      <text class="nonterminal" x="59" y="241">instanceMod</text>
   </a>
   <rect x="51" y="267" width="50" height="32" rx="10"/>
   <rect x="49"
          y="265"
          width="50"
          height="32"
          class="terminal"
          rx="10"/>
   <text class="terminal" x="59" y="285">type</text>
   <a xmlns:xlink="http://www.w3.org/1999/xlink"
       xlink:href="#IDENTIFIER"
       xlink:title="IDENTIFIER">
      <rect x="121" y="267" width="92" height="32"/>
      <rect x="119" y="265" width="92" height="32" class="nonterminal"/>
      <text class="nonterminal" x="129" y="285">IDENTIFIER</text>
   </a>
   <rect x="253" y="299" width="30" height="32" rx="10"/>
   <rect x="251"
          y="297"
          width="30"
          height="32"
          class="terminal"
          rx="10"/>
   <text class="terminal" x="261" y="317">=</text>
   <a xmlns:xlink="http://www.w3.org/1999/xlink"
       xlink:href="#type"
       xlink:title="type">
      <rect x="303" y="299" width="48" height="32"/>
      <rect x="301" y="297" width="48" height="32" class="nonterminal"/>
      <text class="nonterminal" x="311" y="317">type</text>
   </a>
   <rect x="51" y="343" width="64" height="32" rx="10"/>
   <rect x="49"
          y="341"
          width="64"
          height="32"
          class="terminal"
          rx="10"/>
   <text class="terminal" x="59" y="361">import</text>
   <a xmlns:xlink="http://www.w3.org/1999/xlink"
       xlink:href="#path"
       xlink:title="path">
      <rect x="135" y="343" width="48" height="32"/>
      <rect x="133" y="341" width="48" height="32" class="nonterminal"/>
      <text class="nonterminal" x="143" y="361">path</text>
   </a>
   <rect x="203" y="343" width="24" height="32" rx="10"/>
   <rect x="201"
          y="341"
          width="24"
          height="32"
          class="terminal"
          rx="10"/>
   <text class="terminal" x="211" y="361">.</text>
   <a xmlns:xlink="http://www.w3.org/1999/xlink"
       xlink:href="#identOrStar"
       xlink:title="identOrStar">
      <rect x="247" y="343" width="92" height="32"/>
      <rect x="245" y="341" width="92" height="32" class="nonterminal"/>
      <text class="nonterminal" x="255" y="361">identOrStar</text>
   </a>
   <path class="line"
          d="m17 17 h2 m40 0 h10 m56 0 h10 m-96 0 h20 m76 0 h20 m-116 0 q10 0 10 10 m96 0 q0 -10 10 -10 m-106 10 v24 m96 0 v-24 m-96 24 q0 10 10 10 m76 0 q10 0 10 -10 m-86 10 h10 m42 0 h10 m0 0 h14 m20 -44 h10 m92 0 h10 m0 0 h10 m24 0 h10 m0 0 h10 m48 0 h10 m-360 0 h20 m340 0 h20 m-380 0 q10 0 10 10 m360 0 q0 -10 10 -10 m-370 10 v68 m360 0 v-68 m-360 68 q0 10 10 10 m340 0 q10 0 10 -10 m-350 10 h10 m70 0 h10 m0 0 h10 m94 0 h10 m0 0 h10 m30 0 h10 m0 0 h10 m48 0 h10 m0 0 h18 m-350 -10 v20 m360 0 v-20 m-360 20 v24 m360 0 v-24 m-360 24 q0 10 10 10 m340 0 q10 0 10 -10 m-350 10 h10 m70 0 h10 m0 0 h250 m-350 -10 v20 m360 0 v-20 m-360 20 v24 m360 0 v-24 m-360 24 q0 10 10 10 m340 0 q10 0 10 -10 m-350 10 h10 m66 0 h10 m0 0 h254 m-350 -10 v20 m360 0 v-20 m-360 20 v24 m360 0 v-24 m-360 24 q0 10 10 10 m340 0 q10 0 10 -10 m-350 10 h10 m100 0 h10 m0 0 h220 m-350 -10 v20 m360 0 v-20 m-360 20 v24 m360 0 v-24 m-360 24 q0 10 10 10 m340 0 q10 0 10 -10 m-350 10 h10 m50 0 h10 m0 0 h10 m92 0 h10 m20 0 h10 m0 0 h108 m-138 0 h20 m118 0 h20 m-158 0 q10 0 10 10 m138 0 q0 -10 10 -10 m-148 10 v12 m138 0 v-12 m-138 12 q0 10 10 10 m118 0 q10 0 10 -10 m-128 10 h10 m30 0 h10 m0 0 h10 m48 0 h10 m-330 -42 v20 m360 0 v-20 m-360 20 v56 m360 0 v-56 m-360 56 q0 10 10 10 m340 0 q10 0 10 -10 m-350 10 h10 m64 0 h10 m0 0 h10 m48 0 h10 m0 0 h10 m24 0 h10 m0 0 h10 m92 0 h10 m0 0 h32 m23 -340 h-3"/>
   <polygon points="409 17 417 13 417 21"/>
   <polygon points="409 17 401 13 401 21"/>
</svg>
