<?xml version="1.0" encoding="UTF-8"?>
<svg xmlns="http://www.w3.org/2000/svg" width="205" height="185">
   <defs>
      <style type="text/css">
    @namespace "http://www.w3.org/2000/svg";
    .line                 {fill: none; stroke: #332900; stroke-width: 1;}
    .bold-line            {stroke: #141000; shape-rendering: crispEdges; stroke-width: 2;}
    .thin-line            {stroke: #1F1800; shape-rendering: crispEdges}
    .filled               {fill: #332900; stroke: none;}
    text.terminal         {font-family: Verdana, Sans-serif;
                            font-size: 12px;
                            fill: #141000;
                            font-weight: bold;
                          }
    text.nonterminal      {font-family: Verdana, Sans-serif;
                            font-size: 12px;
                            fill: #1A1400;
                            font-weight: normal;
                          }
    text.regexp           {font-family: Verdana, Sans-serif;
                            font-size: 12px;
                            fill: #1F1800;
                            font-weight: normal;
                          }
    rect, circle, polygon {fill: #332900; stroke: #332900;}
    rect.terminal         {fill: #FFDB4D; stroke: #332900; stroke-width: 1;}
    rect.nonterminal      {fill: #FFEC9E; stroke: #332900; stroke-width: 1;}
    rect.text             {fill: none; stroke: none;}
    polygon.regexp        {fill: #FFF4C7; stroke: #332900; stroke-width: 1;}
  </style>
   </defs>
   <polygon points="9 33 1 29 1 37"/>
   <polygon points="17 33 9 29 9 37"/>
   <rect x="71" y="19" width="24" height="32" rx="10"/>
   <rect x="69"
          y="17"
          width="24"
          height="32"
          class="terminal"
          rx="10"/>
   <text class="terminal" x="79" y="37"/>
   <polygon points="71 79 78 63 130 63 137 79 130 95 78 95"/>
   <polygon points="69 77 76 61 128 61 135 77 128 93 76 93" class="regexp"/>
   <text class="regexp" x="84" y="81">[#x9]</text>
   <polygon points="71 123 78 107 130 107 137 123 130 139 78 139"/>
   <polygon points="69 121 76 105 128 105 135 121 128 137 76 137" class="regexp"/>
   <text class="regexp" x="84" y="125">[#xd]</text>
   <polygon points="71 167 78 151 130 151 137 167 130 183 78 183"/>
   <polygon points="69 165 76 149 128 149 135 165 128 181 76 181" class="regexp"/>
   <text class="regexp" x="84" y="169">[#xa]</text>
   <path class="line"
          d="m17 33 h2 m40 0 h10 m24 0 h10 m0 0 h42 m-106 0 h20 m86 0 h20 m-126 0 q10 0 10 10 m106 0 q0 -10 10 -10 m-116 10 v24 m106 0 v-24 m-106 24 q0 10 10 10 m86 0 q10 0 10 -10 m-96 10 h10 m66 0 h10 m-96 -10 v20 m106 0 v-20 m-106 20 v24 m106 0 v-24 m-106 24 q0 10 10 10 m86 0 q10 0 10 -10 m-96 10 h10 m66 0 h10 m-96 -10 v20 m106 0 v-20 m-106 20 v24 m106 0 v-24 m-106 24 q0 10 10 10 m86 0 q10 0 10 -10 m-96 10 h10 m66 0 h10 m-126 -132 l20 0 m-1 0 q-9 0 -9 -10 l0 -12 q0 -10 10 -10 m126 32 l20 0 m-20 0 q10 0 10 -10 l0 -12 q0 -10 -10 -10 m-126 0 h10 m0 0 h116 m23 32 h-3"/>
   <polygon points="195 33 203 29 203 37"/>
   <polygon points="195 33 187 29 187 37"/>
</svg>
