<?xml version="1.0" encoding="UTF-8"?>
<svg id="Layer_2" data-name="Layer 2" xmlns="http://www.w3.org/2000/svg" viewBox="0 0 500 285">
  <defs>
    <style>
      .cls-1 {
        isolation: isolate;
      }

      .cls-1, .cls-2, .cls-3 {
        fill: #0b2d7c;
      }

      .cls-1, .cls-2, .cls-3, .cls-4 {
        stroke-width: 0px;
      }

      .cls-5 {
        opacity: .5;
      }

      .cls-2 {
        fill-rule: evenodd;
      }

      .cls-4 {
        fill: #fff;
      }
    </style>
  </defs>
  <g id="Informal_Systems" data-name="Informal Systems">
    <g id="InformalSystems_Rectangle_Blue_2Tone">
      <rect class="cls-4" width="500" height="285"/>
      <g>
        <g>
          <path class="cls-3" d="M70,110.12h6.04v-7.23h-6.04v7.23ZM70.17,162.66h5.78v-42.76h-5.78v42.76Z"/>
          <path class="cls-3" d="M95.03,162.66h5.78v-20.49c0-2.04.17-4,.68-5.78,1.96-7.06,8.25-12.07,15.56-12.07,8.25,0,9.27,5.95,9.27,12.67v25.67h5.78v-27.2c0-10.54-3.74-16.58-14.28-16.58s-15.56,6.89-17.09,10.8h-.17s.17-1.53.17-3.4v-6.38h-5.7v42.76Z"/>
          <path class="cls-3" d="M187.48,141.07c0,12.92,10.12,22.61,22.62,22.61s22.62-9.69,22.62-22.61-10.12-22.19-22.62-22.19-22.62,9.52-22.62,22.19ZM193.44,141.07c0-9.69,7.48-16.92,16.67-16.92s16.67,7.23,16.67,16.92-7.48,17.43-16.67,17.43-16.67-7.48-16.67-17.43Z"/>
          <path class="cls-3" d="M248.63,162.66h5.78v-18.02c0-2.72.34-5.61,1.19-8.33,1.87-6.29,6.38-11.05,12.41-11.05,1.11,0,2.13.17,2.13.17v-5.7s-1.11-.25-2.3-.25c-6.72,0-11.48,4.93-13.52,11.39h-.17s.17-1.53.17-3.4v-7.57h-5.7v42.76Z"/>
          <path class="cls-3" d="M284.04,162.66h5.78v-20.23c0-1.96.17-3.91.59-5.7,1.79-6.55,7.06-12.58,14.03-12.58,8.08,0,9.01,6.29,9.01,12.75v25.76h5.78v-20.23c0-2.3.17-4.34.77-6.21,1.62-6.29,6.97-12.07,13.52-12.07,7.82,0,9.27,5.78,9.27,12.75v25.76h5.78v-27.2c0-10.54-3.83-16.58-14.2-16.58-7.23,0-13.43,4.93-15.73,10.71h-.17c-1.28-7.06-5.36-10.71-13.26-10.71-6.63,0-13.43,5.02-15.48,10.8h-.17s.17-1.53.17-3.4v-6.38h-5.7v42.76Z"/>
          <path class="cls-3" d="M363.54,151.01c0,8.5,7.4,12.67,14.54,12.67,10.71,0,14.29-9.27,14.29-9.27h.17s-.17,1.45-.17,3.57v4.68h5.53v-27.37c0-10.71-5.7-16.41-15.99-16.41-9.61,0-15.22,4.85-15.22,4.85l2.72,4.42s5.02-4.08,12.07-4.08c6.12,0,10.63,2.81,10.63,11.05v1.11h-2.38c-7.4,0-26.19.34-26.19,14.79ZM369.49,150.67c0-9.44,13.43-9.69,20.15-9.69h2.47v1.87c0,7.4-4.93,15.9-13.09,15.9-6.38,0-9.52-4.08-9.52-8.08Z"/>
          <path class="cls-3" d="M415.88,152.54c0,9.35,6.29,10.46,9.86,10.46,1.11,0,2.13-.17,2.13-.17v-5.19s-.68.09-1.45.09c-2.21,0-4.76-.85-4.76-6.46v-48.37h-5.78v49.64Z"/>
          <path class="cls-2" d="M180.39,80.31c4.22-2.24,8.2-3.33,11.97-3.33s6.85.89,9.2,2.59h.02c2.31,1.61,3.39,3.6,3.39,6.04,0,2.1-.56,3.86-1.65,5.34l-.02.03c-1.01,1.48-2.09,2.06-3.24,2.06-.7,0-1.14-.25-1.47-.8-.5-.92-1.23-2.54-2.19-4.91-.82-2.11-1.86-3.8-3.15-5-1.27-1.36-2.92-2.03-4.86-2.03-3.29,0-6.01,1.83-8.17,5.12v.02c-2.03,3.22-4.01,8.2-5.97,14.85-1.07,3.64-1.91,7.02-2.54,10.14-.17.7-.31,1.27-.4,1.71-.08.4-.16.78-.16,1.05v.27c0,.73.24,1.43.87,1.92.57.45,1.32.59,2.04.59,1.62,0,3.94-.09,6.94-.27l6.34-.13.05.1.12.12s.02.02.04.09c.02.07.05.18.05.36,0,.35-.26,1.08-1.13,2.31v.02s-.03.02-.03.02c-.37.57-.68.93-.94,1.15-.26.21-.39.22-.42.22l-11.15.27c-1.48,0-2.78.23-3.73.82l-.03.02-.03.02c-.87.62-1.42,1.57-1.73,2.69-5.58,18.94-6.77,24.8-10.46,42.91-.17.86-.35,1.74-.54,2.65v.02s0,.02,0,.02c-.5,3.22-1.89,7.09-3.5,10.75-1.6,3.65-3.38,7.02-4.6,9.23-2.42,4.37-5.01,7.87-7.75,10.52h-.01c-2.68,2.7-5.29,4.65-7.8,5.91-2.1,1.05-3.76,1.77-5.01,2.2l-.56-1.37c1.05-.66,2.22-1.6,3.49-2.8,1.7-1.5,3.31-3.52,4.86-6.02,1.65-2.53,3.15-5.62,4.49-9.25,1.42-3.51,4.33-11.87,5.11-16.71l10.27-47.52c.12-.4.17-.86.17-1.33,0-.75-.31-1.43-.97-1.87-.58-.39-1.33-.51-2.08-.51l-7.97.13c-.54,0-.8-.1-.92-.18-.07-.13-.15-.4-.15-.89,0-.58.23-1.24.83-1.99.64-.79,1.32-1.14,2.04-1.2l8.63-.4h.03c1.54-.16,2.37-1.41,2.77-2.89l1.06-3.7c2.27-7.6,5.23-13.8,8.85-18.63,3.74-4.95,7.65-8.46,11.71-10.57h0Z"/>
        </g>
        <g class="cls-5">
          <path class="cls-1" d="M193.84,199.58s3.04,3.85,8.53,3.85,8.25-3.36,8.25-7.31c0-8.15-11.68-7.31-11.68-11.54,0-1.57,1.54-2.66,3.64-2.66,1.64,0,3.29.77,3.29,1.92v1.12h4.13v-2.31c0-3.53-4.48-4.89-7.38-4.89-4.79,0-8.29,2.97-8.29,6.99,0,7.73,11.68,7.38,11.68,11.61,0,1.92-1.68,2.94-3.57,2.94-3.46,0-6.01-2.94-6.01-2.94l-2.59,3.22Z"/>
          <path class="cls-1" d="M234.71,203.01h4.58v-10.84l5.87-9.27c.45-.7.66-.84,1.43-.84h.8v-3.88h-2.34c-1.61,0-2.34.24-3.25,1.82l-3.25,5.45c-.87,1.47-1.5,2.8-1.5,2.8h-.07s-.63-1.36-1.5-2.8l-3.29-5.45c-.94-1.57-1.64-1.82-3.25-1.82h-2.34v3.88h.8c.77,0,.98.14,1.43.84l5.87,9.27v10.84Z"/>
          <path class="cls-1" d="M263.21,199.58s3.04,3.85,8.53,3.85,8.25-3.36,8.25-7.31c0-8.15-11.68-7.31-11.68-11.54,0-1.57,1.54-2.66,3.64-2.66,1.64,0,3.29.77,3.29,1.92v1.12h4.13v-2.31c0-3.53-4.48-4.89-7.38-4.89-4.79,0-8.29,2.97-8.29,6.99,0,7.73,11.68,7.38,11.68,11.61,0,1.92-1.68,2.94-3.57,2.94-3.46,0-6.01-2.94-6.01-2.94l-2.59,3.22Z"/>
          <path class="cls-1" d="M304.74,203.01h4.58v-20.94h3.81c.49,0,.77.28.77.77v1.5h4.02v-3.92c0-1.64-.56-2.24-2.24-2.24h-17.31c-1.68,0-2.24.59-2.24,2.24v3.92h4.02v-1.5c0-.49.28-.77.77-.77h3.81v20.94Z"/>
          <path class="cls-1" d="M336.25,200.63c0,1.68.7,2.38,2.38,2.38h11.26c1.64,0,2.38-.7,2.38-2.38v-3.78h-4.16v1.5c0,.49-.28.77-.77.77h-5.73c-.49,0-.77-.28-.77-.77v-5.91h8.04v-3.88h-8.04v-6.5h5.59c.49,0,.77.28.77.77v1.5h4.16v-3.78c0-1.64-.73-2.38-2.38-2.38h-15v3.88h2.27v18.57Z"/>
          <path class="cls-1" d="M367.97,203.01h3.95c1.64,0,2.24-.7,2.38-2.38l.8-11.05c.14-1.64.03-3.88.03-3.88h.07s.73,2.48,1.36,3.88l4.13,9.16h3.71l4.13-9.16c.63-1.4,1.36-3.85,1.36-3.85h.07s-.1,2.2.03,3.85l.84,11.05c.14,1.68.7,2.38,2.34,2.38h3.95v-3.88h-1.08c-.49,0-.73-.28-.77-.77l-1.61-20.17h-4.76l-5.1,11.82c-.59,1.43-1.22,3.32-1.22,3.32h-.07s-.63-1.89-1.22-3.32l-5.1-11.82h-4.76l-1.61,20.17c-.03.49-.28.77-.77.77h-1.08v3.88Z"/>
          <path class="cls-1" d="M413.22,199.58s3.04,3.85,8.53,3.85,8.25-3.36,8.25-7.31c0-8.15-11.68-7.31-11.68-11.54,0-1.57,1.54-2.66,3.64-2.66,1.64,0,3.29.77,3.29,1.92v1.12h4.13v-2.31c0-3.53-4.48-4.89-7.38-4.89-4.79,0-8.29,2.97-8.29,6.99,0,7.73,11.68,7.38,11.68,11.61,0,1.92-1.68,2.94-3.57,2.94-3.46,0-6.01-2.94-6.01-2.94l-2.59,3.22Z"/>
        </g>
      </g>
    </g>
  </g>
</svg>